<mxfile host="app.diagrams.net" modified="2023-06-08T06:50:18.841Z" agent="Mozilla/5.0 (Windows NT 10.0; Win64; x64) AppleWebKit/537.36 (KHTML, like Gecko) Chrome/114.0.0.0 Safari/537.36" etag="b1TYuCjCvc9Fp0YEhOW8" version="21.3.7" type="device">
  <diagram id="C5RBs43oDa-KdzZeNtuy" name="Page-1">
    <mxGraphModel dx="1276" dy="1458" grid="1" gridSize="10" guides="1" tooltips="1" connect="1" arrows="1" fold="1" page="1" pageScale="1" pageWidth="827" pageHeight="1169" math="0" shadow="0">
      <root>
        <mxCell id="WIyWlLk6GJQsqaUBKTNV-0" />
        <mxCell id="WIyWlLk6GJQsqaUBKTNV-1" parent="WIyWlLk6GJQsqaUBKTNV-0" />
        <mxCell id="X7Wm0wWlR6N1wWY1FZSC-55" value="" style="rounded=1;whiteSpace=wrap;html=1;fillColor=none;arcSize=5;" parent="WIyWlLk6GJQsqaUBKTNV-1" vertex="1">
          <mxGeometry x="910" y="1000" width="420" height="250" as="geometry" />
        </mxCell>
        <mxCell id="X7Wm0wWlR6N1wWY1FZSC-54" value="" style="rounded=1;whiteSpace=wrap;html=1;fillColor=none;arcSize=5;" parent="WIyWlLk6GJQsqaUBKTNV-1" vertex="1">
          <mxGeometry x="470" y="1490" width="420" height="200" as="geometry" />
        </mxCell>
        <mxCell id="X7Wm0wWlR6N1wWY1FZSC-53" value="" style="rounded=1;whiteSpace=wrap;html=1;fillColor=none;arcSize=5;" parent="WIyWlLk6GJQsqaUBKTNV-1" vertex="1">
          <mxGeometry x="470" y="1000" width="420" height="470" as="geometry" />
        </mxCell>
        <mxCell id="X7Wm0wWlR6N1wWY1FZSC-52" value="" style="rounded=1;whiteSpace=wrap;html=1;fillColor=none;arcSize=5;" parent="WIyWlLk6GJQsqaUBKTNV-1" vertex="1">
          <mxGeometry x="30" y="1000" width="420" height="580" as="geometry" />
        </mxCell>
        <mxCell id="X7Wm0wWlR6N1wWY1FZSC-48" value="" style="rounded=1;whiteSpace=wrap;html=1;fillColor=none;" parent="WIyWlLk6GJQsqaUBKTNV-1" vertex="1">
          <mxGeometry x="40" y="145" width="240" height="295" as="geometry" />
        </mxCell>
        <mxCell id="FkGXfzKXtZ8YiJBUD02L-8" value="returnType staticMethod (parameterType)" style="text;align=left;verticalAlign=top;spacingLeft=4;spacingRight=4;overflow=hidden;rotatable=0;points=[[0,0.5],[1,0.5]];portConstraint=eastwest;rounded=0;shadow=0;html=0;fontStyle=2" vertex="1" parent="X7Wm0wWlR6N1wWY1FZSC-48">
          <mxGeometry x="5" y="249" width="230" height="26" as="geometry" />
        </mxCell>
        <mxCell id="zkfFHV4jXpPFQw0GAbJ--0" value="Route" style="swimlane;fontStyle=2;align=center;verticalAlign=top;childLayout=stackLayout;horizontal=1;startSize=26;horizontalStack=0;resizeParent=1;resizeLast=0;collapsible=1;marginBottom=0;rounded=0;shadow=0;strokeWidth=1;fillColor=#f8cecc;strokeColor=#b85450;" parent="WIyWlLk6GJQsqaUBKTNV-1" vertex="1">
          <mxGeometry x="730" y="260" width="170" height="120" as="geometry">
            <mxRectangle x="220" y="120" width="160" height="26" as="alternateBounds" />
          </mxGeometry>
        </mxCell>
        <mxCell id="FkGXfzKXtZ8YiJBUD02L-17" value="startNodeName (String)" style="text;align=left;verticalAlign=top;spacingLeft=4;spacingRight=4;overflow=hidden;rotatable=0;points=[[0,0.5],[1,0.5]];portConstraint=eastwest;rounded=0;shadow=0;html=0;" vertex="1" parent="zkfFHV4jXpPFQw0GAbJ--0">
          <mxGeometry y="26" width="170" height="26" as="geometry" />
        </mxCell>
        <mxCell id="FkGXfzKXtZ8YiJBUD02L-18" value="endNodeName (String)" style="text;align=left;verticalAlign=top;spacingLeft=4;spacingRight=4;overflow=hidden;rotatable=0;points=[[0,0.5],[1,0.5]];portConstraint=eastwest;rounded=0;shadow=0;html=0;" vertex="1" parent="zkfFHV4jXpPFQw0GAbJ--0">
          <mxGeometry y="52" width="170" height="26" as="geometry" />
        </mxCell>
        <mxCell id="zkfFHV4jXpPFQw0GAbJ--3" value="routeNodes (Set&lt;RouteSeq&gt;)" style="text;align=left;verticalAlign=top;spacingLeft=4;spacingRight=4;overflow=hidden;rotatable=0;points=[[0,0.5],[1,0.5]];portConstraint=eastwest;rounded=0;shadow=0;html=0;" parent="zkfFHV4jXpPFQw0GAbJ--0" vertex="1">
          <mxGeometry y="78" width="170" height="26" as="geometry" />
        </mxCell>
        <mxCell id="zkfFHV4jXpPFQw0GAbJ--4" value="" style="line;html=1;strokeWidth=1;align=left;verticalAlign=middle;spacingTop=-1;spacingLeft=3;spacingRight=3;rotatable=0;labelPosition=right;points=[];portConstraint=eastwest;fillColor=#f8cecc;strokeColor=#b85450;" parent="zkfFHV4jXpPFQw0GAbJ--0" vertex="1">
          <mxGeometry y="104" width="170" height="8" as="geometry" />
        </mxCell>
        <mxCell id="zkfFHV4jXpPFQw0GAbJ--6" value="PassingNode" style="swimlane;fontStyle=2;align=center;verticalAlign=top;childLayout=stackLayout;horizontal=1;startSize=26;horizontalStack=0;resizeParent=1;resizeLast=0;collapsible=1;marginBottom=0;rounded=0;shadow=0;strokeWidth=1;fillColor=#eeeeee;strokeColor=#36393d;" parent="WIyWlLk6GJQsqaUBKTNV-1" vertex="1">
          <mxGeometry x="300" y="450" width="230" height="138" as="geometry">
            <mxRectangle x="130" y="380" width="160" height="26" as="alternateBounds" />
          </mxGeometry>
        </mxCell>
        <mxCell id="zkfFHV4jXpPFQw0GAbJ--7" value="order (Integer)" style="text;align=left;verticalAlign=top;spacingLeft=4;spacingRight=4;overflow=hidden;rotatable=0;points=[[0,0.5],[1,0.5]];portConstraint=eastwest;" parent="zkfFHV4jXpPFQw0GAbJ--6" vertex="1">
          <mxGeometry y="26" width="230" height="26" as="geometry" />
        </mxCell>
        <mxCell id="zkfFHV4jXpPFQw0GAbJ--8" value="longitude (Double)" style="text;align=left;verticalAlign=top;spacingLeft=4;spacingRight=4;overflow=hidden;rotatable=0;points=[[0,0.5],[1,0.5]];portConstraint=eastwest;rounded=0;shadow=0;html=0;" parent="zkfFHV4jXpPFQw0GAbJ--6" vertex="1">
          <mxGeometry y="52" width="230" height="26" as="geometry" />
        </mxCell>
        <mxCell id="FkGXfzKXtZ8YiJBUD02L-3" value="latitude (Double)" style="text;align=left;verticalAlign=top;spacingLeft=4;spacingRight=4;overflow=hidden;rotatable=0;points=[[0,0.5],[1,0.5]];portConstraint=eastwest;rounded=0;shadow=0;html=0;" vertex="1" parent="zkfFHV4jXpPFQw0GAbJ--6">
          <mxGeometry y="78" width="230" height="26" as="geometry" />
        </mxCell>
        <mxCell id="zkfFHV4jXpPFQw0GAbJ--9" value="" style="line;html=1;strokeWidth=1;align=left;verticalAlign=middle;spacingTop=-1;spacingLeft=3;spacingRight=3;rotatable=0;labelPosition=right;points=[];portConstraint=eastwest;fillColor=#eeeeee;strokeColor=#36393d;" parent="zkfFHV4jXpPFQw0GAbJ--6" vertex="1">
          <mxGeometry y="104" width="230" height="8" as="geometry" />
        </mxCell>
        <mxCell id="FkGXfzKXtZ8YiJBUD02L-4" value="PassingNode fromRouteSeq (RouteSeq)" style="text;align=left;verticalAlign=top;spacingLeft=4;spacingRight=4;overflow=hidden;rotatable=0;points=[[0,0.5],[1,0.5]];portConstraint=eastwest;rounded=0;shadow=0;html=0;fontStyle=2" vertex="1" parent="zkfFHV4jXpPFQw0GAbJ--6">
          <mxGeometry y="112" width="230" height="26" as="geometry" />
        </mxCell>
        <mxCell id="zkfFHV4jXpPFQw0GAbJ--12" value="" style="endArrow=block;endSize=10;endFill=0;shadow=0;strokeWidth=1;rounded=0;edgeStyle=elbowEdgeStyle;elbow=vertical;entryX=0.25;entryY=1;entryDx=0;entryDy=0;exitX=0.5;exitY=0;exitDx=0;exitDy=0;" parent="WIyWlLk6GJQsqaUBKTNV-1" source="zkfFHV4jXpPFQw0GAbJ--6" target="X7Wm0wWlR6N1wWY1FZSC-0" edge="1">
          <mxGeometry width="160" relative="1" as="geometry">
            <mxPoint x="240.16999999999996" y="283" as="sourcePoint" />
            <mxPoint x="240.16999999999996" y="283" as="targetPoint" />
            <Array as="points">
              <mxPoint x="430" y="290" />
            </Array>
          </mxGeometry>
        </mxCell>
        <mxCell id="zkfFHV4jXpPFQw0GAbJ--13" value="KneelingBus" style="swimlane;fontStyle=2;align=center;verticalAlign=top;childLayout=stackLayout;horizontal=1;startSize=26;horizontalStack=0;resizeParent=1;resizeLast=0;collapsible=1;marginBottom=0;rounded=0;shadow=0;strokeWidth=1;fillColor=#f8cecc;strokeColor=#b85450;" parent="WIyWlLk6GJQsqaUBKTNV-1" vertex="1">
          <mxGeometry x="660" y="120" width="160" height="80" as="geometry">
            <mxRectangle x="340" y="380" width="170" height="26" as="alternateBounds" />
          </mxGeometry>
        </mxCell>
        <mxCell id="zkfFHV4jXpPFQw0GAbJ--14" value="vehicleNo (String)" style="text;align=left;verticalAlign=top;spacingLeft=4;spacingRight=4;overflow=hidden;rotatable=0;points=[[0,0.5],[1,0.5]];portConstraint=eastwest;" parent="zkfFHV4jXpPFQw0GAbJ--13" vertex="1">
          <mxGeometry y="26" width="160" height="26" as="geometry" />
        </mxCell>
        <mxCell id="zkfFHV4jXpPFQw0GAbJ--15" value="" style="line;html=1;strokeWidth=1;align=left;verticalAlign=middle;spacingTop=-1;spacingLeft=3;spacingRight=3;rotatable=0;labelPosition=right;points=[];portConstraint=eastwest;fillColor=#f8cecc;strokeColor=#b85450;" parent="zkfFHV4jXpPFQw0GAbJ--13" vertex="1">
          <mxGeometry y="52" width="160" height="8" as="geometry" />
        </mxCell>
        <mxCell id="NNAgDV5kl5tZtwMsC2Bn-0" value="Node (NodeDto)" style="swimlane;fontStyle=2;align=center;verticalAlign=top;childLayout=stackLayout;horizontal=1;startSize=26;horizontalStack=0;resizeParent=1;resizeLast=0;collapsible=1;marginBottom=0;rounded=0;shadow=0;strokeWidth=1;fillColor=#f8cecc;strokeColor=#b85450;" parent="WIyWlLk6GJQsqaUBKTNV-1" vertex="1">
          <mxGeometry x="460" y="306" width="160" height="100" as="geometry">
            <mxRectangle x="220" y="120" width="160" height="26" as="alternateBounds" />
          </mxGeometry>
        </mxCell>
        <mxCell id="NNAgDV5kl5tZtwMsC2Bn-5" value="longitude (Double)" style="text;align=left;verticalAlign=top;spacingLeft=4;spacingRight=4;overflow=hidden;rotatable=0;points=[[0,0.5],[1,0.5]];portConstraint=eastwest;rounded=0;shadow=0;html=0;" parent="NNAgDV5kl5tZtwMsC2Bn-0" vertex="1">
          <mxGeometry y="26" width="160" height="26" as="geometry" />
        </mxCell>
        <mxCell id="NNAgDV5kl5tZtwMsC2Bn-6" value="latitude (Double)" style="text;align=left;verticalAlign=top;spacingLeft=4;spacingRight=4;overflow=hidden;rotatable=0;points=[[0,0.5],[1,0.5]];portConstraint=eastwest;rounded=0;shadow=0;html=0;" parent="NNAgDV5kl5tZtwMsC2Bn-0" vertex="1">
          <mxGeometry y="52" width="160" height="26" as="geometry" />
        </mxCell>
        <mxCell id="NNAgDV5kl5tZtwMsC2Bn-4" value="" style="line;html=1;strokeWidth=1;align=left;verticalAlign=middle;spacingTop=-1;spacingLeft=3;spacingRight=3;rotatable=0;labelPosition=right;points=[];portConstraint=eastwest;fillColor=#f8cecc;strokeColor=#b85450;" parent="NNAgDV5kl5tZtwMsC2Bn-0" vertex="1">
          <mxGeometry y="78" width="160" height="8" as="geometry" />
        </mxCell>
        <mxCell id="NNAgDV5kl5tZtwMsC2Bn-8" value="NodeController" style="swimlane;fontStyle=2;align=center;verticalAlign=top;childLayout=stackLayout;horizontal=1;startSize=26;horizontalStack=0;resizeParent=1;resizeLast=0;collapsible=1;marginBottom=0;rounded=0;shadow=0;strokeWidth=1;fillColor=#f8cecc;strokeColor=#b85450;" parent="WIyWlLk6GJQsqaUBKTNV-1" vertex="1">
          <mxGeometry x="40" y="1010" width="400" height="150" as="geometry">
            <mxRectangle x="220" y="120" width="160" height="26" as="alternateBounds" />
          </mxGeometry>
        </mxCell>
        <mxCell id="FkGXfzKXtZ8YiJBUD02L-31" value="NodeService" style="text;align=left;verticalAlign=top;spacingLeft=4;spacingRight=4;overflow=hidden;rotatable=0;points=[[0,0.5],[1,0.5]];portConstraint=eastwest;rounded=0;shadow=0;html=0;" vertex="1" parent="NNAgDV5kl5tZtwMsC2Bn-8">
          <mxGeometry y="26" width="400" height="26" as="geometry" />
        </mxCell>
        <mxCell id="NNAgDV5kl5tZtwMsC2Bn-14" value="" style="line;html=1;strokeWidth=1;align=left;verticalAlign=middle;spacingTop=-1;spacingLeft=3;spacingRight=3;rotatable=0;labelPosition=right;points=[];portConstraint=eastwest;fillColor=#f8cecc;strokeColor=#b85450;" parent="NNAgDV5kl5tZtwMsC2Bn-8" vertex="1">
          <mxGeometry y="52" width="400" height="8" as="geometry" />
        </mxCell>
        <mxCell id="0v5wqwy9z-cO2fE_teIm-12" value="List&lt;NodeDto&gt; getNodeList(nodeNo, nodeName)" style="text;align=left;verticalAlign=top;spacingLeft=4;spacingRight=4;overflow=hidden;rotatable=0;points=[[0,0.5],[1,0.5]];portConstraint=eastwest;rounded=0;shadow=0;html=0;" parent="NNAgDV5kl5tZtwMsC2Bn-8" vertex="1">
          <mxGeometry y="60" width="400" height="30" as="geometry" />
        </mxCell>
        <mxCell id="NNAgDV5kl5tZtwMsC2Bn-13" value="RealtimeBusArrivalInfo getRealtimeBusArrivalInfo(nodeId)" style="text;align=left;verticalAlign=top;spacingLeft=4;spacingRight=4;overflow=hidden;rotatable=0;points=[[0,0.5],[1,0.5]];portConstraint=eastwest;rounded=0;shadow=0;html=0;" parent="NNAgDV5kl5tZtwMsC2Bn-8" vertex="1">
          <mxGeometry y="90" width="400" height="26" as="geometry" />
        </mxCell>
        <mxCell id="NNAgDV5kl5tZtwMsC2Bn-15" value="List&lt;NodeDto&gt; getAroundNodeInfo(longitude, latitude)" style="text;align=left;verticalAlign=top;spacingLeft=4;spacingRight=4;overflow=hidden;rotatable=0;points=[[0,0.5],[1,0.5]];portConstraint=eastwest;rounded=0;shadow=0;html=0;" parent="NNAgDV5kl5tZtwMsC2Bn-8" vertex="1">
          <mxGeometry y="116" width="400" height="26" as="geometry" />
        </mxCell>
        <mxCell id="NNAgDV5kl5tZtwMsC2Bn-16" value="RouteController" style="swimlane;fontStyle=2;align=center;verticalAlign=top;childLayout=stackLayout;horizontal=1;startSize=26;horizontalStack=0;resizeParent=1;resizeLast=0;collapsible=1;marginBottom=0;rounded=0;shadow=0;strokeWidth=1;fillColor=#f8cecc;strokeColor=#b85450;" parent="WIyWlLk6GJQsqaUBKTNV-1" vertex="1">
          <mxGeometry x="480" y="1010" width="400" height="126" as="geometry">
            <mxRectangle x="220" y="120" width="160" height="26" as="alternateBounds" />
          </mxGeometry>
        </mxCell>
        <mxCell id="FkGXfzKXtZ8YiJBUD02L-36" value="RouteService" style="text;align=left;verticalAlign=top;spacingLeft=4;spacingRight=4;overflow=hidden;rotatable=0;points=[[0,0.5],[1,0.5]];portConstraint=eastwest;rounded=0;shadow=0;html=0;" vertex="1" parent="NNAgDV5kl5tZtwMsC2Bn-16">
          <mxGeometry y="26" width="400" height="26" as="geometry" />
        </mxCell>
        <mxCell id="NNAgDV5kl5tZtwMsC2Bn-18" value="" style="line;html=1;strokeWidth=1;align=left;verticalAlign=middle;spacingTop=-1;spacingLeft=3;spacingRight=3;rotatable=0;labelPosition=right;points=[];portConstraint=eastwest;fillColor=#f8cecc;strokeColor=#b85450;" parent="NNAgDV5kl5tZtwMsC2Bn-16" vertex="1">
          <mxGeometry y="52" width="400" height="8" as="geometry" />
        </mxCell>
        <mxCell id="0v5wqwy9z-cO2fE_teIm-8" value="List&lt;searchedRoute&gt; getRouteList(routeNo)" style="text;align=left;verticalAlign=top;spacingLeft=4;spacingRight=4;overflow=hidden;rotatable=0;points=[[0,0.5],[1,0.5]];portConstraint=eastwest;rounded=0;shadow=0;html=0;fontColor=default;fontStyle=0;" parent="NNAgDV5kl5tZtwMsC2Bn-16" vertex="1">
          <mxGeometry y="60" width="400" height="26" as="geometry" />
        </mxCell>
        <mxCell id="NNAgDV5kl5tZtwMsC2Bn-19" value="RealtimeBusLocationInfo getRealtimeBusLocationInfo(routeId)" style="text;align=left;verticalAlign=top;spacingLeft=4;spacingRight=4;overflow=hidden;rotatable=0;points=[[0,0.5],[1,0.5]];portConstraint=eastwest;rounded=0;shadow=0;html=0;" parent="NNAgDV5kl5tZtwMsC2Bn-16" vertex="1">
          <mxGeometry y="86" width="400" height="26" as="geometry" />
        </mxCell>
        <mxCell id="NNAgDV5kl5tZtwMsC2Bn-21" value="PathController" style="swimlane;fontStyle=2;align=center;verticalAlign=top;childLayout=stackLayout;horizontal=1;startSize=26;horizontalStack=0;resizeParent=1;resizeLast=0;collapsible=1;marginBottom=0;rounded=0;shadow=0;strokeWidth=1;fillColor=#f8cecc;strokeColor=#b85450;" parent="WIyWlLk6GJQsqaUBKTNV-1" vertex="1">
          <mxGeometry x="920" y="1010" width="400" height="114" as="geometry">
            <mxRectangle x="220" y="120" width="160" height="26" as="alternateBounds" />
          </mxGeometry>
        </mxCell>
        <mxCell id="FkGXfzKXtZ8YiJBUD02L-41" value="PathService" style="text;align=left;verticalAlign=top;spacingLeft=4;spacingRight=4;overflow=hidden;rotatable=0;points=[[0,0.5],[1,0.5]];portConstraint=eastwest;rounded=0;shadow=0;html=0;" vertex="1" parent="NNAgDV5kl5tZtwMsC2Bn-21">
          <mxGeometry y="26" width="400" height="26" as="geometry" />
        </mxCell>
        <mxCell id="NNAgDV5kl5tZtwMsC2Bn-23" value="" style="line;html=1;strokeWidth=1;align=left;verticalAlign=middle;spacingTop=-1;spacingLeft=3;spacingRight=3;rotatable=0;labelPosition=right;points=[];portConstraint=eastwest;fillColor=#f8cecc;strokeColor=#b85450;" parent="NNAgDV5kl5tZtwMsC2Bn-21" vertex="1">
          <mxGeometry y="52" width="400" height="8" as="geometry" />
        </mxCell>
        <mxCell id="NNAgDV5kl5tZtwMsC2Bn-25" value="ArrayList&lt;Path&gt; getPathInfo(departureLongitude, departureLatitude,&#xa;                                                arrivalLongitude, arrivalLatitude)" style="text;align=left;verticalAlign=top;spacingLeft=4;spacingRight=4;overflow=hidden;rotatable=0;points=[[0,0.5],[1,0.5]];portConstraint=eastwest;rounded=0;shadow=0;html=0;" parent="NNAgDV5kl5tZtwMsC2Bn-21" vertex="1">
          <mxGeometry y="60" width="400" height="40" as="geometry" />
        </mxCell>
        <mxCell id="NNAgDV5kl5tZtwMsC2Bn-29" value="Path" style="swimlane;fontStyle=2;align=center;verticalAlign=top;childLayout=stackLayout;horizontal=1;startSize=26;horizontalStack=0;resizeParent=1;resizeLast=0;collapsible=1;marginBottom=0;rounded=0;shadow=0;strokeWidth=1;fillColor=#eeeeee;strokeColor=#36393d;" parent="WIyWlLk6GJQsqaUBKTNV-1" vertex="1">
          <mxGeometry x="850" y="720" width="170" height="164" as="geometry">
            <mxRectangle x="220" y="120" width="160" height="26" as="alternateBounds" />
          </mxGeometry>
        </mxCell>
        <mxCell id="NNAgDV5kl5tZtwMsC2Bn-30" value="duration (Integer)" style="text;align=left;verticalAlign=top;spacingLeft=4;spacingRight=4;overflow=hidden;rotatable=0;points=[[0,0.5],[1,0.5]];portConstraint=eastwest;" parent="NNAgDV5kl5tZtwMsC2Bn-29" vertex="1">
          <mxGeometry y="26" width="170" height="26" as="geometry" />
        </mxCell>
        <mxCell id="NNAgDV5kl5tZtwMsC2Bn-31" value="stepList (ArrayList&lt;Step&gt;)" style="text;align=left;verticalAlign=top;spacingLeft=4;spacingRight=4;overflow=hidden;rotatable=0;points=[[0,0.5],[1,0.5]];portConstraint=eastwest;rounded=0;shadow=0;html=0;" parent="NNAgDV5kl5tZtwMsC2Bn-29" vertex="1">
          <mxGeometry y="52" width="170" height="26" as="geometry" />
        </mxCell>
        <mxCell id="NNAgDV5kl5tZtwMsC2Bn-33" value="" style="line;html=1;strokeWidth=1;align=left;verticalAlign=middle;spacingTop=-1;spacingLeft=3;spacingRight=3;rotatable=0;labelPosition=right;points=[];portConstraint=eastwest;fillColor=#eeeeee;strokeColor=#36393d;" parent="NNAgDV5kl5tZtwMsC2Bn-29" vertex="1">
          <mxGeometry y="78" width="170" height="8" as="geometry" />
        </mxCell>
        <mxCell id="FkGXfzKXtZ8YiJBUD02L-5" value="void setStepList (List&lt;Step)&gt;" style="text;align=left;verticalAlign=top;spacingLeft=4;spacingRight=4;overflow=hidden;rotatable=0;points=[[0,0.5],[1,0.5]];portConstraint=eastwest;" vertex="1" parent="NNAgDV5kl5tZtwMsC2Bn-29">
          <mxGeometry y="86" width="170" height="26" as="geometry" />
        </mxCell>
        <mxCell id="FkGXfzKXtZ8YiJBUD02L-6" value="Path ofJSON(JSONObject)" style="text;align=left;verticalAlign=top;spacingLeft=4;spacingRight=4;overflow=hidden;rotatable=0;points=[[0,0.5],[1,0.5]];portConstraint=eastwest;fontStyle=2" vertex="1" parent="NNAgDV5kl5tZtwMsC2Bn-29">
          <mxGeometry y="112" width="170" height="26" as="geometry" />
        </mxCell>
        <mxCell id="FkGXfzKXtZ8YiJBUD02L-7" value="Path of (Integer)" style="text;align=left;verticalAlign=top;spacingLeft=4;spacingRight=4;overflow=hidden;rotatable=0;points=[[0,0.5],[1,0.5]];portConstraint=eastwest;fontStyle=2" vertex="1" parent="NNAgDV5kl5tZtwMsC2Bn-29">
          <mxGeometry y="138" width="170" height="26" as="geometry" />
        </mxCell>
        <mxCell id="NNAgDV5kl5tZtwMsC2Bn-34" value="Step" style="swimlane;fontStyle=2;align=center;verticalAlign=top;childLayout=stackLayout;horizontal=1;startSize=26;horizontalStack=0;resizeParent=1;resizeLast=0;collapsible=1;marginBottom=0;rounded=0;shadow=0;strokeWidth=1;fillColor=#eeeeee;strokeColor=#36393d;" parent="WIyWlLk6GJQsqaUBKTNV-1" vertex="1">
          <mxGeometry x="810" y="410" width="250" height="270" as="geometry">
            <mxRectangle x="220" y="120" width="160" height="26" as="alternateBounds" />
          </mxGeometry>
        </mxCell>
        <mxCell id="NNAgDV5kl5tZtwMsC2Bn-35" value="type (String)" style="text;align=left;verticalAlign=top;spacingLeft=4;spacingRight=4;overflow=hidden;rotatable=0;points=[[0,0.5],[1,0.5]];portConstraint=eastwest;" parent="NNAgDV5kl5tZtwMsC2Bn-34" vertex="1">
          <mxGeometry y="26" width="250" height="26" as="geometry" />
        </mxCell>
        <mxCell id="NNAgDV5kl5tZtwMsC2Bn-36" value="duration (Integer)" style="text;align=left;verticalAlign=top;spacingLeft=4;spacingRight=4;overflow=hidden;rotatable=0;points=[[0,0.5],[1,0.5]];portConstraint=eastwest;rounded=0;shadow=0;html=0;" parent="NNAgDV5kl5tZtwMsC2Bn-34" vertex="1">
          <mxGeometry y="52" width="250" height="26" as="geometry" />
        </mxCell>
        <mxCell id="NNAgDV5kl5tZtwMsC2Bn-37" value="departure (NodeDto)" style="text;align=left;verticalAlign=top;spacingLeft=4;spacingRight=4;overflow=hidden;rotatable=0;points=[[0,0.5],[1,0.5]];portConstraint=eastwest;rounded=0;shadow=0;html=0;" parent="NNAgDV5kl5tZtwMsC2Bn-34" vertex="1">
          <mxGeometry y="78" width="250" height="26" as="geometry" />
        </mxCell>
        <mxCell id="NNAgDV5kl5tZtwMsC2Bn-38" value="arrival (NodeDto)" style="text;align=left;verticalAlign=top;spacingLeft=4;spacingRight=4;overflow=hidden;rotatable=0;points=[[0,0.5],[1,0.5]];portConstraint=eastwest;rounded=0;shadow=0;html=0;" parent="NNAgDV5kl5tZtwMsC2Bn-34" vertex="1">
          <mxGeometry y="104" width="250" height="26" as="geometry" />
        </mxCell>
        <mxCell id="NNAgDV5kl5tZtwMsC2Bn-39" value="arrivalRouteList (List&lt;ArrivalRoute&gt;)" style="text;align=left;verticalAlign=top;spacingLeft=4;spacingRight=4;overflow=hidden;rotatable=0;points=[[0,0.5],[1,0.5]];portConstraint=eastwest;rounded=0;shadow=0;html=0;" parent="NNAgDV5kl5tZtwMsC2Bn-34" vertex="1">
          <mxGeometry y="130" width="250" height="26" as="geometry" />
        </mxCell>
        <mxCell id="NNAgDV5kl5tZtwMsC2Bn-40" value="" style="line;html=1;strokeWidth=1;align=left;verticalAlign=middle;spacingTop=-1;spacingLeft=3;spacingRight=3;rotatable=0;labelPosition=right;points=[];portConstraint=eastwest;fillColor=#eeeeee;strokeColor=#36393d;" parent="NNAgDV5kl5tZtwMsC2Bn-34" vertex="1">
          <mxGeometry y="156" width="250" height="8" as="geometry" />
        </mxCell>
        <mxCell id="FkGXfzKXtZ8YiJBUD02L-9" value="void setArrivalRouteList (List&lt;ArrivalRoute&gt;)" style="text;align=left;verticalAlign=top;spacingLeft=4;spacingRight=4;overflow=hidden;rotatable=0;points=[[0,0.5],[1,0.5]];portConstraint=eastwest;rounded=0;shadow=0;html=0;" vertex="1" parent="NNAgDV5kl5tZtwMsC2Bn-34">
          <mxGeometry y="164" width="250" height="26" as="geometry" />
        </mxCell>
        <mxCell id="FkGXfzKXtZ8YiJBUD02L-10" value="void setDepartue (NodeDto)" style="text;align=left;verticalAlign=top;spacingLeft=4;spacingRight=4;overflow=hidden;rotatable=0;points=[[0,0.5],[1,0.5]];portConstraint=eastwest;rounded=0;shadow=0;html=0;" vertex="1" parent="NNAgDV5kl5tZtwMsC2Bn-34">
          <mxGeometry y="190" width="250" height="26" as="geometry" />
        </mxCell>
        <mxCell id="FkGXfzKXtZ8YiJBUD02L-11" value="void setArrival (NodeDto)" style="text;align=left;verticalAlign=top;spacingLeft=4;spacingRight=4;overflow=hidden;rotatable=0;points=[[0,0.5],[1,0.5]];portConstraint=eastwest;rounded=0;shadow=0;html=0;" vertex="1" parent="NNAgDV5kl5tZtwMsC2Bn-34">
          <mxGeometry y="216" width="250" height="26" as="geometry" />
        </mxCell>
        <mxCell id="FkGXfzKXtZ8YiJBUD02L-12" value="Step ofJSON (JSONObject)" style="text;align=left;verticalAlign=top;spacingLeft=4;spacingRight=4;overflow=hidden;rotatable=0;points=[[0,0.5],[1,0.5]];portConstraint=eastwest;rounded=0;shadow=0;html=0;fontStyle=2" vertex="1" parent="NNAgDV5kl5tZtwMsC2Bn-34">
          <mxGeometry y="242" width="250" height="26" as="geometry" />
        </mxCell>
        <mxCell id="NNAgDV5kl5tZtwMsC2Bn-41" value="" style="endArrow=open;shadow=0;strokeWidth=1;rounded=0;endFill=1;exitX=0.5;exitY=0;exitDx=0;exitDy=0;edgeStyle=elbowEdgeStyle;entryX=0.5;entryY=1;entryDx=0;entryDy=0;" parent="WIyWlLk6GJQsqaUBKTNV-1" source="NNAgDV5kl5tZtwMsC2Bn-29" target="NNAgDV5kl5tZtwMsC2Bn-34" edge="1">
          <mxGeometry x="0.5" y="41" relative="1" as="geometry">
            <mxPoint x="840" y="1000" as="sourcePoint" />
            <mxPoint x="1080" y="690" as="targetPoint" />
            <mxPoint x="-40" y="32" as="offset" />
            <Array as="points" />
          </mxGeometry>
        </mxCell>
        <mxCell id="NNAgDV5kl5tZtwMsC2Bn-42" value="*" style="resizable=0;align=right;verticalAlign=bottom;labelBackgroundColor=none;fontSize=12;" parent="NNAgDV5kl5tZtwMsC2Bn-41" connectable="0" vertex="1">
          <mxGeometry x="0.98" relative="1" as="geometry">
            <mxPoint x="-7" y="19" as="offset" />
          </mxGeometry>
        </mxCell>
        <mxCell id="NNAgDV5kl5tZtwMsC2Bn-43" value="contains" style="text;html=1;resizable=0;points=[];;align=center;verticalAlign=middle;labelBackgroundColor=none;rounded=0;shadow=0;strokeWidth=1;fontSize=12;" parent="NNAgDV5kl5tZtwMsC2Bn-41" vertex="1" connectable="0">
          <mxGeometry x="0.5" y="49" relative="1" as="geometry">
            <mxPoint x="22" y="21" as="offset" />
          </mxGeometry>
        </mxCell>
        <mxCell id="NNAgDV5kl5tZtwMsC2Bn-44" value="RealtimeBusArrivalInfo" style="swimlane;fontStyle=2;align=center;verticalAlign=top;childLayout=stackLayout;horizontal=1;startSize=26;horizontalStack=0;resizeParent=1;resizeLast=0;collapsible=1;marginBottom=0;rounded=0;shadow=0;strokeWidth=1;fillColor=#d5e8d4;strokeColor=#82b366;" parent="WIyWlLk6GJQsqaUBKTNV-1" vertex="1">
          <mxGeometry x="1140" y="440" width="210" height="100" as="geometry">
            <mxRectangle x="340" y="380" width="170" height="26" as="alternateBounds" />
          </mxGeometry>
        </mxCell>
        <mxCell id="NNAgDV5kl5tZtwMsC2Bn-45" value="nodeDto (NodeDto)" style="text;align=left;verticalAlign=top;spacingLeft=4;spacingRight=4;overflow=hidden;rotatable=0;points=[[0,0.5],[1,0.5]];portConstraint=eastwest;" parent="NNAgDV5kl5tZtwMsC2Bn-44" vertex="1">
          <mxGeometry y="26" width="210" height="26" as="geometry" />
        </mxCell>
        <mxCell id="NNAgDV5kl5tZtwMsC2Bn-47" value="arrivalRouteList (List&lt;ArrivalRoute&gt;)" style="text;align=left;verticalAlign=top;spacingLeft=4;spacingRight=4;overflow=hidden;rotatable=0;points=[[0,0.5],[1,0.5]];portConstraint=eastwest;" parent="NNAgDV5kl5tZtwMsC2Bn-44" vertex="1">
          <mxGeometry y="52" width="210" height="26" as="geometry" />
        </mxCell>
        <mxCell id="NNAgDV5kl5tZtwMsC2Bn-46" value="" style="line;html=1;strokeWidth=1;align=left;verticalAlign=middle;spacingTop=-1;spacingLeft=3;spacingRight=3;rotatable=0;labelPosition=right;points=[];portConstraint=eastwest;fillColor=#d5e8d4;strokeColor=#82b366;" parent="NNAgDV5kl5tZtwMsC2Bn-44" vertex="1">
          <mxGeometry y="78" width="210" height="8" as="geometry" />
        </mxCell>
        <mxCell id="NNAgDV5kl5tZtwMsC2Bn-48" value="ArrivalRoute" style="swimlane;fontStyle=2;align=center;verticalAlign=top;childLayout=stackLayout;horizontal=1;startSize=26;horizontalStack=0;resizeParent=1;resizeLast=0;collapsible=1;marginBottom=0;rounded=0;shadow=0;strokeWidth=1;fillColor=#eeeeee;strokeColor=#36393d;" parent="WIyWlLk6GJQsqaUBKTNV-1" vertex="1">
          <mxGeometry x="1150" y="260" width="190" height="138" as="geometry">
            <mxRectangle x="220" y="120" width="160" height="26" as="alternateBounds" />
          </mxGeometry>
        </mxCell>
        <mxCell id="NNAgDV5kl5tZtwMsC2Bn-51" value="prevNodeCnt (Integer)" style="text;align=left;verticalAlign=top;spacingLeft=4;spacingRight=4;overflow=hidden;rotatable=0;points=[[0,0.5],[1,0.5]];portConstraint=eastwest;rounded=0;shadow=0;html=0;" parent="NNAgDV5kl5tZtwMsC2Bn-48" vertex="1">
          <mxGeometry y="26" width="190" height="26" as="geometry" />
        </mxCell>
        <mxCell id="NNAgDV5kl5tZtwMsC2Bn-52" value="arrTime (Integer)" style="text;align=left;verticalAlign=top;spacingLeft=4;spacingRight=4;overflow=hidden;rotatable=0;points=[[0,0.5],[1,0.5]];portConstraint=eastwest;rounded=0;shadow=0;html=0;" parent="NNAgDV5kl5tZtwMsC2Bn-48" vertex="1">
          <mxGeometry y="52" width="190" height="26" as="geometry" />
        </mxCell>
        <mxCell id="0v5wqwy9z-cO2fE_teIm-0" value="departureName (String)" style="text;align=left;verticalAlign=top;spacingLeft=4;spacingRight=4;overflow=hidden;rotatable=0;points=[[0,0.5],[1,0.5]];portConstraint=eastwest;rounded=0;shadow=0;html=0;" parent="NNAgDV5kl5tZtwMsC2Bn-48" vertex="1">
          <mxGeometry y="78" width="190" height="26" as="geometry" />
        </mxCell>
        <mxCell id="NNAgDV5kl5tZtwMsC2Bn-54" value="" style="line;html=1;strokeWidth=1;align=left;verticalAlign=middle;spacingTop=-1;spacingLeft=3;spacingRight=3;rotatable=0;labelPosition=right;points=[];portConstraint=eastwest;fillColor=#eeeeee;strokeColor=#36393d;" parent="NNAgDV5kl5tZtwMsC2Bn-48" vertex="1">
          <mxGeometry y="104" width="190" height="8" as="geometry" />
        </mxCell>
        <mxCell id="FkGXfzKXtZ8YiJBUD02L-0" value="void setDepartureName (String)" style="text;align=left;verticalAlign=top;spacingLeft=4;spacingRight=4;overflow=hidden;rotatable=0;points=[[0,0.5],[1,0.5]];portConstraint=eastwest;rounded=0;shadow=0;html=0;" vertex="1" parent="NNAgDV5kl5tZtwMsC2Bn-48">
          <mxGeometry y="112" width="190" height="26" as="geometry" />
        </mxCell>
        <mxCell id="NNAgDV5kl5tZtwMsC2Bn-58" value="RealtimeBusLocationInfo" style="swimlane;fontStyle=2;align=center;verticalAlign=top;childLayout=stackLayout;horizontal=1;startSize=26;horizontalStack=0;resizeParent=1;resizeLast=0;collapsible=1;marginBottom=0;rounded=0;shadow=0;strokeWidth=1;fillColor=#d5e8d4;strokeColor=#82b366;" parent="WIyWlLk6GJQsqaUBKTNV-1" vertex="1">
          <mxGeometry x="305" y="640" width="220" height="150" as="geometry">
            <mxRectangle x="340" y="380" width="170" height="26" as="alternateBounds" />
          </mxGeometry>
        </mxCell>
        <mxCell id="NNAgDV5kl5tZtwMsC2Bn-59" value="routeId (String)" style="text;align=left;verticalAlign=top;spacingLeft=4;spacingRight=4;overflow=hidden;rotatable=0;points=[[0,0.5],[1,0.5]];portConstraint=eastwest;" parent="NNAgDV5kl5tZtwMsC2Bn-58" vertex="1">
          <mxGeometry y="26" width="220" height="26" as="geometry" />
        </mxCell>
        <mxCell id="FkGXfzKXtZ8YiJBUD02L-1" value="routeNo (String)" style="text;align=left;verticalAlign=top;spacingLeft=4;spacingRight=4;overflow=hidden;rotatable=0;points=[[0,0.5],[1,0.5]];portConstraint=eastwest;" vertex="1" parent="NNAgDV5kl5tZtwMsC2Bn-58">
          <mxGeometry y="52" width="220" height="26" as="geometry" />
        </mxCell>
        <mxCell id="FkGXfzKXtZ8YiJBUD02L-2" value="realtimeNodeOrderList (List&lt;Integer&gt;)" style="text;align=left;verticalAlign=top;spacingLeft=3;spacingRight=0;overflow=hidden;rotatable=0;points=[[0,0.5],[1,0.5]];portConstraint=eastwest;" vertex="1" parent="NNAgDV5kl5tZtwMsC2Bn-58">
          <mxGeometry y="78" width="220" height="26" as="geometry" />
        </mxCell>
        <mxCell id="NNAgDV5kl5tZtwMsC2Bn-60" value="passingNodeList (List&lt;PassingNode&gt;)" style="text;align=left;verticalAlign=top;spacingLeft=3;spacingRight=0;overflow=hidden;rotatable=0;points=[[0,0.5],[1,0.5]];portConstraint=eastwest;" parent="NNAgDV5kl5tZtwMsC2Bn-58" vertex="1">
          <mxGeometry y="104" width="220" height="26" as="geometry" />
        </mxCell>
        <mxCell id="NNAgDV5kl5tZtwMsC2Bn-61" value="" style="line;html=1;strokeWidth=1;align=left;verticalAlign=middle;spacingTop=-1;spacingLeft=3;spacingRight=3;rotatable=0;labelPosition=right;points=[];portConstraint=eastwest;fillColor=#d5e8d4;strokeColor=#82b366;" parent="NNAgDV5kl5tZtwMsC2Bn-58" vertex="1">
          <mxGeometry y="130" width="220" height="8" as="geometry" />
        </mxCell>
        <mxCell id="NNAgDV5kl5tZtwMsC2Bn-84" value="NodeService" style="swimlane;fontStyle=2;align=center;verticalAlign=top;childLayout=stackLayout;horizontal=1;startSize=26;horizontalStack=0;resizeParent=1;resizeLast=0;collapsible=1;marginBottom=0;rounded=0;shadow=0;strokeWidth=1;fillColor=#dae8fc;strokeColor=#6c8ebf;" parent="WIyWlLk6GJQsqaUBKTNV-1" vertex="1">
          <mxGeometry x="40" y="1174" width="400" height="256" as="geometry">
            <mxRectangle x="220" y="120" width="160" height="26" as="alternateBounds" />
          </mxGeometry>
        </mxCell>
        <mxCell id="FkGXfzKXtZ8YiJBUD02L-32" value="NodeRepository" style="text;align=left;verticalAlign=top;spacingLeft=4;spacingRight=4;overflow=hidden;rotatable=0;points=[[0,0.5],[1,0.5]];portConstraint=eastwest;rounded=0;shadow=0;html=0;" vertex="1" parent="NNAgDV5kl5tZtwMsC2Bn-84">
          <mxGeometry y="26" width="400" height="26" as="geometry" />
        </mxCell>
        <mxCell id="FkGXfzKXtZ8YiJBUD02L-33" value="RouteService" style="text;align=left;verticalAlign=top;spacingLeft=4;spacingRight=4;overflow=hidden;rotatable=0;points=[[0,0.5],[1,0.5]];portConstraint=eastwest;rounded=0;shadow=0;html=0;" vertex="1" parent="NNAgDV5kl5tZtwMsC2Bn-84">
          <mxGeometry y="52" width="400" height="26" as="geometry" />
        </mxCell>
        <mxCell id="FkGXfzKXtZ8YiJBUD02L-34" value="AroundNodeService" style="text;align=left;verticalAlign=top;spacingLeft=4;spacingRight=4;overflow=hidden;rotatable=0;points=[[0,0.5],[1,0.5]];portConstraint=eastwest;rounded=0;shadow=0;html=0;" vertex="1" parent="NNAgDV5kl5tZtwMsC2Bn-84">
          <mxGeometry y="78" width="400" height="26" as="geometry" />
        </mxCell>
        <mxCell id="FkGXfzKXtZ8YiJBUD02L-35" value="BusArrivalInfoService" style="text;align=left;verticalAlign=top;spacingLeft=4;spacingRight=4;overflow=hidden;rotatable=0;points=[[0,0.5],[1,0.5]];portConstraint=eastwest;rounded=0;shadow=0;html=0;" vertex="1" parent="NNAgDV5kl5tZtwMsC2Bn-84">
          <mxGeometry y="104" width="400" height="26" as="geometry" />
        </mxCell>
        <mxCell id="NNAgDV5kl5tZtwMsC2Bn-86" value="" style="line;html=1;strokeWidth=1;align=left;verticalAlign=middle;spacingTop=-1;spacingLeft=3;spacingRight=3;rotatable=0;labelPosition=right;points=[];portConstraint=eastwest;fillColor=#dae8fc;strokeColor=#6c8ebf;" parent="NNAgDV5kl5tZtwMsC2Bn-84" vertex="1">
          <mxGeometry y="130" width="400" height="8" as="geometry" />
        </mxCell>
        <mxCell id="0v5wqwy9z-cO2fE_teIm-13" value="List&lt;NodeDto&gt; getNodeList(nodeNo, nodeName)" style="text;align=left;verticalAlign=top;spacingLeft=4;spacingRight=4;overflow=hidden;rotatable=0;points=[[0,0.5],[1,0.5]];portConstraint=eastwest;rounded=0;shadow=0;html=0;" parent="NNAgDV5kl5tZtwMsC2Bn-84" vertex="1">
          <mxGeometry y="138" width="400" height="26" as="geometry" />
        </mxCell>
        <mxCell id="NNAgDV5kl5tZtwMsC2Bn-87" value="RealtimeBusArrivalInfo getRealtimeBusArrivalInfo(nodeId)" style="text;align=left;verticalAlign=top;spacingLeft=4;spacingRight=4;overflow=hidden;rotatable=0;points=[[0,0.5],[1,0.5]];portConstraint=eastwest;rounded=0;shadow=0;html=0;" parent="NNAgDV5kl5tZtwMsC2Bn-84" vertex="1">
          <mxGeometry y="164" width="400" height="26" as="geometry" />
        </mxCell>
        <mxCell id="NNAgDV5kl5tZtwMsC2Bn-88" value="List&lt;NodeDto&gt; getArroundNodeInfo(longitude, latitude)" style="text;align=left;verticalAlign=top;spacingLeft=4;spacingRight=4;overflow=hidden;rotatable=0;points=[[0,0.5],[1,0.5]];portConstraint=eastwest;rounded=0;shadow=0;html=0;" parent="NNAgDV5kl5tZtwMsC2Bn-84" vertex="1">
          <mxGeometry y="190" width="400" height="26" as="geometry" />
        </mxCell>
        <mxCell id="0v5wqwy9z-cO2fE_teIm-26" value="Node getNodeByNodeNo(nodeNo)" style="text;align=left;verticalAlign=top;spacingLeft=4;spacingRight=4;overflow=hidden;rotatable=0;points=[[0,0.5],[1,0.5]];portConstraint=eastwest;rounded=0;shadow=0;html=0;fontColor=default;fontStyle=0;" parent="NNAgDV5kl5tZtwMsC2Bn-84" vertex="1">
          <mxGeometry y="216" width="400" height="26" as="geometry" />
        </mxCell>
        <mxCell id="NNAgDV5kl5tZtwMsC2Bn-89" value="RouteService" style="swimlane;fontStyle=2;align=center;verticalAlign=top;childLayout=stackLayout;horizontal=1;startSize=26;horizontalStack=0;resizeParent=1;resizeLast=0;collapsible=1;marginBottom=0;rounded=0;shadow=0;strokeWidth=1;fillColor=#dae8fc;strokeColor=#6c8ebf;" parent="WIyWlLk6GJQsqaUBKTNV-1" vertex="1">
          <mxGeometry x="480" y="1150" width="400" height="170" as="geometry">
            <mxRectangle x="220" y="120" width="160" height="26" as="alternateBounds" />
          </mxGeometry>
        </mxCell>
        <mxCell id="FkGXfzKXtZ8YiJBUD02L-37" value="RouteRepository" style="text;align=left;verticalAlign=top;spacingLeft=4;spacingRight=4;overflow=hidden;rotatable=0;points=[[0,0.5],[1,0.5]];portConstraint=eastwest;rounded=0;shadow=0;html=0;" vertex="1" parent="NNAgDV5kl5tZtwMsC2Bn-89">
          <mxGeometry y="26" width="400" height="26" as="geometry" />
        </mxCell>
        <mxCell id="FkGXfzKXtZ8YiJBUD02L-38" value="RealtimeBusLocationInfoService" style="text;align=left;verticalAlign=top;spacingLeft=4;spacingRight=4;overflow=hidden;rotatable=0;points=[[0,0.5],[1,0.5]];portConstraint=eastwest;rounded=0;shadow=0;html=0;" vertex="1" parent="NNAgDV5kl5tZtwMsC2Bn-89">
          <mxGeometry y="52" width="400" height="26" as="geometry" />
        </mxCell>
        <mxCell id="NNAgDV5kl5tZtwMsC2Bn-91" value="" style="line;html=1;strokeWidth=1;align=left;verticalAlign=middle;spacingTop=0;spacingLeft=3;spacingRight=3;rotatable=0;labelPosition=right;points=[];portConstraint=eastwest;fillColor=#dae8fc;strokeColor=#6c8ebf;" parent="NNAgDV5kl5tZtwMsC2Bn-89" vertex="1">
          <mxGeometry y="78" width="400" height="8" as="geometry" />
        </mxCell>
        <mxCell id="0v5wqwy9z-cO2fE_teIm-10" value="List&lt;searchedRoute&gt; getRouteList(routeNo)" style="text;align=left;verticalAlign=top;spacingLeft=4;spacingRight=4;overflow=hidden;rotatable=0;points=[[0,0.5],[1,0.5]];portConstraint=eastwest;rounded=0;shadow=0;html=0;fontColor=default;fontStyle=0;" parent="NNAgDV5kl5tZtwMsC2Bn-89" vertex="1">
          <mxGeometry y="86" width="400" height="26" as="geometry" />
        </mxCell>
        <mxCell id="NNAgDV5kl5tZtwMsC2Bn-92" value="RealtimeBusLocationInfo getRealtimeBusLocationInfo(routeId)" style="text;align=left;verticalAlign=top;spacingLeft=4;spacingRight=4;overflow=hidden;rotatable=0;points=[[0,0.5],[1,0.5]];portConstraint=eastwest;rounded=0;shadow=0;html=0;spacing=2;" parent="NNAgDV5kl5tZtwMsC2Bn-89" vertex="1">
          <mxGeometry y="112" width="400" height="26" as="geometry" />
        </mxCell>
        <mxCell id="NNAgDV5kl5tZtwMsC2Bn-93" value="String getArrivalName(routeId)" style="text;align=left;verticalAlign=top;spacingLeft=4;spacingRight=4;overflow=hidden;rotatable=0;points=[[0,0.5],[1,0.5]];portConstraint=eastwest;rounded=0;shadow=0;html=0;" parent="NNAgDV5kl5tZtwMsC2Bn-89" vertex="1">
          <mxGeometry y="138" width="400" height="26" as="geometry" />
        </mxCell>
        <mxCell id="NNAgDV5kl5tZtwMsC2Bn-94" value="RouteRepository" style="swimlane;fontStyle=2;align=center;verticalAlign=top;childLayout=stackLayout;horizontal=1;startSize=26;horizontalStack=0;resizeParent=1;resizeLast=0;collapsible=1;marginBottom=0;rounded=0;shadow=0;strokeWidth=1;fillColor=#d5e8d4;strokeColor=#82b366;" parent="WIyWlLk6GJQsqaUBKTNV-1" vertex="1">
          <mxGeometry x="540" y="1330" width="280" height="130" as="geometry">
            <mxRectangle x="220" y="120" width="160" height="26" as="alternateBounds" />
          </mxGeometry>
        </mxCell>
        <mxCell id="NNAgDV5kl5tZtwMsC2Bn-95" value=" " style="text;align=left;verticalAlign=top;spacingLeft=4;spacingRight=4;overflow=hidden;rotatable=0;points=[[0,0.5],[1,0.5]];portConstraint=eastwest;rounded=0;shadow=0;html=0;" parent="NNAgDV5kl5tZtwMsC2Bn-94" vertex="1">
          <mxGeometry y="26" width="280" height="14" as="geometry" />
        </mxCell>
        <mxCell id="NNAgDV5kl5tZtwMsC2Bn-96" value="" style="line;html=1;strokeWidth=1;align=left;verticalAlign=middle;spacingTop=-1;spacingLeft=3;spacingRight=3;rotatable=0;labelPosition=right;points=[];portConstraint=eastwest;fillColor=#d5e8d4;strokeColor=#82b366;" parent="NNAgDV5kl5tZtwMsC2Bn-94" vertex="1">
          <mxGeometry y="40" width="280" height="8" as="geometry" />
        </mxCell>
        <mxCell id="NNAgDV5kl5tZtwMsC2Bn-97" value="Optional&lt;Route&gt; findById(routeId)" style="text;align=left;verticalAlign=top;spacingLeft=4;spacingRight=4;overflow=hidden;rotatable=0;points=[[0,0.5],[1,0.5]];portConstraint=eastwest;rounded=0;shadow=0;html=0;" parent="NNAgDV5kl5tZtwMsC2Bn-94" vertex="1">
          <mxGeometry y="48" width="280" height="26" as="geometry" />
        </mxCell>
        <mxCell id="0v5wqwy9z-cO2fE_teIm-11" value="List&lt;Route&gt; findAllByRouteNoContaining(routeNo)" style="text;align=left;verticalAlign=top;spacingLeft=4;spacingRight=4;overflow=hidden;rotatable=0;points=[[0,0.5],[1,0.5]];portConstraint=eastwest;rounded=0;shadow=0;html=0;" parent="NNAgDV5kl5tZtwMsC2Bn-94" vertex="1">
          <mxGeometry y="74" width="280" height="26" as="geometry" />
        </mxCell>
        <mxCell id="q1hTq-5MQLfCPgQxP5bT-1" value="Optional&lt;Route&gt; findByRouteId(routeId)" style="text;align=left;verticalAlign=top;spacingLeft=4;spacingRight=4;overflow=hidden;rotatable=0;points=[[0,0.5],[1,0.5]];portConstraint=eastwest;rounded=0;shadow=0;html=0;" parent="NNAgDV5kl5tZtwMsC2Bn-94" vertex="1">
          <mxGeometry y="100" width="280" height="26" as="geometry" />
        </mxCell>
        <mxCell id="NNAgDV5kl5tZtwMsC2Bn-99" value="PathService" style="swimlane;fontStyle=2;align=center;verticalAlign=top;childLayout=stackLayout;horizontal=1;startSize=26;horizontalStack=0;resizeParent=1;resizeLast=0;collapsible=1;marginBottom=0;rounded=0;shadow=0;strokeWidth=1;fillColor=#dae8fc;strokeColor=#6c8ebf;" parent="WIyWlLk6GJQsqaUBKTNV-1" vertex="1">
          <mxGeometry x="920" y="1136" width="400" height="100" as="geometry">
            <mxRectangle x="220" y="120" width="160" height="26" as="alternateBounds" />
          </mxGeometry>
        </mxCell>
        <mxCell id="FkGXfzKXtZ8YiJBUD02L-42" value="NaverService" style="text;align=left;verticalAlign=top;spacingLeft=4;spacingRight=4;overflow=hidden;rotatable=0;points=[[0,0.5],[1,0.5]];portConstraint=eastwest;rounded=0;shadow=0;html=0;" vertex="1" parent="NNAgDV5kl5tZtwMsC2Bn-99">
          <mxGeometry y="26" width="400" height="26" as="geometry" />
        </mxCell>
        <mxCell id="NNAgDV5kl5tZtwMsC2Bn-101" value="" style="line;html=1;strokeWidth=1;align=left;verticalAlign=middle;spacingTop=-1;spacingLeft=3;spacingRight=3;rotatable=0;labelPosition=right;points=[];portConstraint=eastwest;fillColor=#dae8fc;strokeColor=#6c8ebf;" parent="NNAgDV5kl5tZtwMsC2Bn-99" vertex="1">
          <mxGeometry y="52" width="400" height="8" as="geometry" />
        </mxCell>
        <mxCell id="NNAgDV5kl5tZtwMsC2Bn-103" value="ArrayList&lt;Path&gt; getPathInfo(departureLongitude, departureLatitude,&#xa;                                                arrivalLongitude, arrivalLatitude)" style="text;align=left;verticalAlign=top;spacingLeft=4;spacingRight=4;overflow=hidden;rotatable=0;points=[[0,0.5],[1,0.5]];portConstraint=eastwest;rounded=0;shadow=0;html=0;fontStyle=0;fontColor=#000000;" parent="NNAgDV5kl5tZtwMsC2Bn-99" vertex="1">
          <mxGeometry y="60" width="400" height="40" as="geometry" />
        </mxCell>
        <mxCell id="NNAgDV5kl5tZtwMsC2Bn-104" value="TagoBaseService&lt;T, U&gt;" style="swimlane;fontStyle=2;align=center;verticalAlign=top;childLayout=stackLayout;horizontal=1;startSize=26;horizontalStack=0;resizeParent=1;resizeLast=0;collapsible=1;marginBottom=0;rounded=0;shadow=0;strokeWidth=1;fillColor=#f5f5f5;strokeColor=#666666;fontColor=#333333;" parent="WIyWlLk6GJQsqaUBKTNV-1" vertex="1">
          <mxGeometry x="310" y="1720" width="300" height="190" as="geometry">
            <mxRectangle x="220" y="120" width="160" height="26" as="alternateBounds" />
          </mxGeometry>
        </mxCell>
        <mxCell id="FkGXfzKXtZ8YiJBUD02L-53" value="String serviceKey" style="text;align=left;verticalAlign=top;spacingLeft=4;spacingRight=4;overflow=hidden;rotatable=0;points=[[0,0.5],[1,0.5]];portConstraint=eastwest;" vertex="1" parent="NNAgDV5kl5tZtwMsC2Bn-104">
          <mxGeometry y="26" width="300" height="26" as="geometry" />
        </mxCell>
        <mxCell id="FkGXfzKXtZ8YiJBUD02L-54" value="Integer cityCode" style="text;align=left;verticalAlign=top;spacingLeft=4;spacingRight=4;overflow=hidden;rotatable=0;points=[[0,0.5],[1,0.5]];portConstraint=eastwest;" vertex="1" parent="NNAgDV5kl5tZtwMsC2Bn-104">
          <mxGeometry y="52" width="300" height="26" as="geometry" />
        </mxCell>
        <mxCell id="NNAgDV5kl5tZtwMsC2Bn-106" value="" style="line;html=1;strokeWidth=1;align=left;verticalAlign=middle;spacingTop=-1;spacingLeft=3;spacingRight=3;rotatable=0;labelPosition=right;points=[];portConstraint=eastwest;fillColor=#f5f5f5;strokeColor=#666666;fontColor=#333333;" parent="NNAgDV5kl5tZtwMsC2Bn-104" vertex="1">
          <mxGeometry y="78" width="300" height="8" as="geometry" />
        </mxCell>
        <mxCell id="NNAgDV5kl5tZtwMsC2Bn-107" value="int convertSecToMin(sec)" style="text;align=left;verticalAlign=top;spacingLeft=4;spacingRight=4;overflow=hidden;rotatable=0;points=[[0,0.5],[1,0.5]];portConstraint=eastwest;rounded=0;shadow=0;html=0;fontStyle=2" parent="NNAgDV5kl5tZtwMsC2Bn-104" vertex="1">
          <mxGeometry y="86" width="300" height="26" as="geometry" />
        </mxCell>
        <mxCell id="FkGXfzKXtZ8YiJBUD02L-65" value="JSONObject request(url)" style="text;align=left;verticalAlign=top;spacingLeft=4;spacingRight=4;overflow=hidden;rotatable=0;points=[[0,0.5],[1,0.5]];portConstraint=eastwest;rounded=0;shadow=0;html=0;fontStyle=0" vertex="1" parent="NNAgDV5kl5tZtwMsC2Bn-104">
          <mxGeometry y="112" width="300" height="26" as="geometry" />
        </mxCell>
        <mxCell id="0v5wqwy9z-cO2fE_teIm-24" value="List&lt;T&gt; convert(body, singleReference, listReference)" style="text;align=left;verticalAlign=top;spacingLeft=4;spacingRight=4;overflow=hidden;rotatable=0;points=[[0,0.5],[1,0.5]];portConstraint=eastwest;rounded=0;shadow=0;html=0;" parent="NNAgDV5kl5tZtwMsC2Bn-104" vertex="1">
          <mxGeometry y="138" width="300" height="26" as="geometry" />
        </mxCell>
        <mxCell id="0v5wqwy9z-cO2fE_teIm-31" value="List&lt;U&gt; filter(list)    - abstract method" style="text;align=left;verticalAlign=top;spacingLeft=4;spacingRight=4;overflow=hidden;rotatable=0;points=[[0,0.5],[1,0.5]];portConstraint=eastwest;rounded=0;shadow=0;html=0;fontStyle=0;fontColor=default;" parent="NNAgDV5kl5tZtwMsC2Bn-104" vertex="1">
          <mxGeometry y="164" width="300" height="26" as="geometry" />
        </mxCell>
        <mxCell id="NNAgDV5kl5tZtwMsC2Bn-113" value="KneelingBusService" style="swimlane;fontStyle=2;align=center;verticalAlign=top;childLayout=stackLayout;horizontal=1;startSize=26;horizontalStack=0;resizeParent=1;resizeLast=0;collapsible=1;marginBottom=0;rounded=0;shadow=0;strokeWidth=1;fillColor=#dae8fc;strokeColor=#6c8ebf;" parent="WIyWlLk6GJQsqaUBKTNV-1" vertex="1">
          <mxGeometry x="480" y="1500" width="400" height="86" as="geometry">
            <mxRectangle x="220" y="120" width="160" height="26" as="alternateBounds" />
          </mxGeometry>
        </mxCell>
        <mxCell id="FkGXfzKXtZ8YiJBUD02L-39" value="KneelingBusRepository" style="text;align=left;verticalAlign=top;spacingLeft=4;spacingRight=4;overflow=hidden;rotatable=0;points=[[0,0.5],[1,0.5]];portConstraint=eastwest;rounded=0;shadow=0;html=0;" vertex="1" parent="NNAgDV5kl5tZtwMsC2Bn-113">
          <mxGeometry y="26" width="400" height="26" as="geometry" />
        </mxCell>
        <mxCell id="NNAgDV5kl5tZtwMsC2Bn-115" value="" style="line;html=1;strokeWidth=1;align=left;verticalAlign=middle;spacingTop=-1;spacingLeft=3;spacingRight=3;rotatable=0;labelPosition=right;points=[];portConstraint=eastwest;fillColor=#dae8fc;strokeColor=#6c8ebf;" parent="NNAgDV5kl5tZtwMsC2Bn-113" vertex="1">
          <mxGeometry y="52" width="400" height="8" as="geometry" />
        </mxCell>
        <mxCell id="NNAgDV5kl5tZtwMsC2Bn-116" value="Boolean isKneelingBus(vehicleNo)" style="text;align=left;verticalAlign=top;spacingLeft=4;spacingRight=4;overflow=hidden;rotatable=0;points=[[0,0.5],[1,0.5]];portConstraint=eastwest;rounded=0;shadow=0;html=0;" parent="NNAgDV5kl5tZtwMsC2Bn-113" vertex="1">
          <mxGeometry y="60" width="400" height="26" as="geometry" />
        </mxCell>
        <mxCell id="NNAgDV5kl5tZtwMsC2Bn-118" value="KneelingBusRepository" style="swimlane;fontStyle=2;align=center;verticalAlign=top;childLayout=stackLayout;horizontal=1;startSize=26;horizontalStack=0;resizeParent=1;resizeLast=0;collapsible=1;marginBottom=0;rounded=0;shadow=0;strokeWidth=1;fillColor=#d5e8d4;strokeColor=#82b366;" parent="WIyWlLk6GJQsqaUBKTNV-1" vertex="1">
          <mxGeometry x="550" y="1600" width="260" height="80" as="geometry">
            <mxRectangle x="220" y="120" width="160" height="26" as="alternateBounds" />
          </mxGeometry>
        </mxCell>
        <mxCell id="NNAgDV5kl5tZtwMsC2Bn-119" value=" " style="text;align=left;verticalAlign=top;spacingLeft=4;spacingRight=4;overflow=hidden;rotatable=0;points=[[0,0.5],[1,0.5]];portConstraint=eastwest;rounded=0;shadow=0;html=0;" parent="NNAgDV5kl5tZtwMsC2Bn-118" vertex="1">
          <mxGeometry y="26" width="260" height="14" as="geometry" />
        </mxCell>
        <mxCell id="NNAgDV5kl5tZtwMsC2Bn-120" value="" style="line;html=1;strokeWidth=1;align=left;verticalAlign=middle;spacingTop=-1;spacingLeft=3;spacingRight=3;rotatable=0;labelPosition=right;points=[];portConstraint=eastwest;fillColor=#d5e8d4;strokeColor=#82b366;" parent="NNAgDV5kl5tZtwMsC2Bn-118" vertex="1">
          <mxGeometry y="40" width="260" height="8" as="geometry" />
        </mxCell>
        <mxCell id="NNAgDV5kl5tZtwMsC2Bn-121" value="List&lt;KneelingBus&gt; findByVehicleNo(vehicleNo)" style="text;align=left;verticalAlign=top;spacingLeft=4;spacingRight=4;overflow=hidden;rotatable=0;points=[[0,0.5],[1,0.5]];portConstraint=eastwest;rounded=0;shadow=0;html=0;" parent="NNAgDV5kl5tZtwMsC2Bn-118" vertex="1">
          <mxGeometry y="48" width="260" height="26" as="geometry" />
        </mxCell>
        <mxCell id="0v5wqwy9z-cO2fE_teIm-5" value="" style="endArrow=open;shadow=0;strokeWidth=1;rounded=0;endFill=1;edgeStyle=elbowEdgeStyle;entryX=0;entryY=0.5;entryDx=0;entryDy=0;exitX=1.001;exitY=-0.082;exitDx=0;exitDy=0;exitPerimeter=0;" parent="WIyWlLk6GJQsqaUBKTNV-1" source="NNAgDV5kl5tZtwMsC2Bn-35" target="NNAgDV5kl5tZtwMsC2Bn-52" edge="1">
          <mxGeometry x="0.5" y="41" relative="1" as="geometry">
            <mxPoint x="650" y="825" as="sourcePoint" />
            <mxPoint x="571" y="914" as="targetPoint" />
            <mxPoint x="-40" y="32" as="offset" />
            <Array as="points">
              <mxPoint x="1130" y="360" />
              <mxPoint x="1140" y="410" />
              <mxPoint x="1140" y="370" />
            </Array>
          </mxGeometry>
        </mxCell>
        <mxCell id="0v5wqwy9z-cO2fE_teIm-6" value="*" style="resizable=0;align=right;verticalAlign=bottom;labelBackgroundColor=none;fontSize=12;" parent="0v5wqwy9z-cO2fE_teIm-5" connectable="0" vertex="1">
          <mxGeometry x="1" relative="1" as="geometry">
            <mxPoint x="-3" y="-1" as="offset" />
          </mxGeometry>
        </mxCell>
        <mxCell id="0v5wqwy9z-cO2fE_teIm-7" value="contains" style="text;html=1;resizable=0;points=[];;align=center;verticalAlign=middle;labelBackgroundColor=none;rounded=0;shadow=0;strokeWidth=1;fontSize=12;" parent="0v5wqwy9z-cO2fE_teIm-5" vertex="1" connectable="0">
          <mxGeometry x="0.5" y="49" relative="1" as="geometry">
            <mxPoint x="7" y="67" as="offset" />
          </mxGeometry>
        </mxCell>
        <mxCell id="0v5wqwy9z-cO2fE_teIm-14" value="NodeRepository" style="swimlane;fontStyle=2;align=center;verticalAlign=top;childLayout=stackLayout;horizontal=1;startSize=26;horizontalStack=0;resizeParent=1;resizeLast=0;collapsible=1;marginBottom=0;rounded=0;shadow=0;strokeWidth=1;fillColor=#d5e8d4;strokeColor=#82b366;" parent="WIyWlLk6GJQsqaUBKTNV-1" vertex="1">
          <mxGeometry x="110" y="1440" width="260" height="130" as="geometry">
            <mxRectangle x="220" y="120" width="160" height="26" as="alternateBounds" />
          </mxGeometry>
        </mxCell>
        <mxCell id="0v5wqwy9z-cO2fE_teIm-15" value=" " style="text;align=left;verticalAlign=top;spacingLeft=4;spacingRight=4;overflow=hidden;rotatable=0;points=[[0,0.5],[1,0.5]];portConstraint=eastwest;rounded=0;shadow=0;html=0;" parent="0v5wqwy9z-cO2fE_teIm-14" vertex="1">
          <mxGeometry y="26" width="260" height="14" as="geometry" />
        </mxCell>
        <mxCell id="0v5wqwy9z-cO2fE_teIm-16" value="" style="line;html=1;strokeWidth=1;align=left;verticalAlign=middle;spacingTop=-1;spacingLeft=3;spacingRight=3;rotatable=0;labelPosition=right;points=[];portConstraint=eastwest;fillColor=#d5e8d4;strokeColor=#82b366;" parent="0v5wqwy9z-cO2fE_teIm-14" vertex="1">
          <mxGeometry y="40" width="260" height="8" as="geometry" />
        </mxCell>
        <mxCell id="0v5wqwy9z-cO2fE_teIm-17" value="Optional&lt;Node&gt; findById(nodeId)" style="text;align=left;verticalAlign=top;spacingLeft=4;spacingRight=4;overflow=hidden;rotatable=0;points=[[0,0.5],[1,0.5]];portConstraint=eastwest;rounded=0;shadow=0;html=0;" parent="0v5wqwy9z-cO2fE_teIm-14" vertex="1">
          <mxGeometry y="48" width="260" height="26" as="geometry" />
        </mxCell>
        <mxCell id="0v5wqwy9z-cO2fE_teIm-18" value="List&lt;Node&gt; findByNameContaining(nodeName)" style="text;align=left;verticalAlign=top;spacingLeft=4;spacingRight=-4;overflow=hidden;rotatable=0;points=[[0,0.5],[1,0.5]];portConstraint=eastwest;rounded=0;shadow=0;html=0;spacingBottom=0;fontSize=12;" parent="0v5wqwy9z-cO2fE_teIm-14" vertex="1">
          <mxGeometry y="74" width="260" height="26" as="geometry" />
        </mxCell>
        <mxCell id="q1hTq-5MQLfCPgQxP5bT-0" value="Optional&lt;Node&gt; findByNo(nodeNo)" style="text;align=left;verticalAlign=top;spacingLeft=4;spacingRight=4;overflow=hidden;rotatable=0;points=[[0,0.5],[1,0.5]];portConstraint=eastwest;rounded=0;shadow=0;html=0;fontColor=default;fontStyle=0;" parent="0v5wqwy9z-cO2fE_teIm-14" vertex="1">
          <mxGeometry y="100" width="260" height="26" as="geometry" />
        </mxCell>
        <mxCell id="0v5wqwy9z-cO2fE_teIm-19" value="NaverService" style="swimlane;fontStyle=2;align=center;verticalAlign=top;childLayout=stackLayout;horizontal=1;startSize=26;horizontalStack=0;resizeParent=1;resizeLast=0;collapsible=1;marginBottom=0;rounded=0;shadow=0;strokeWidth=1;fillColor=#dae8fc;strokeColor=#6c8ebf;" parent="WIyWlLk6GJQsqaUBKTNV-1" vertex="1">
          <mxGeometry x="880" y="1782" width="400" height="378" as="geometry">
            <mxRectangle x="220" y="120" width="160" height="26" as="alternateBounds" />
          </mxGeometry>
        </mxCell>
        <mxCell id="FkGXfzKXtZ8YiJBUD02L-43" value="NodeService" style="text;align=left;verticalAlign=middle;spacingLeft=4;spacingRight=4;overflow=hidden;rotatable=0;points=[[0,0.5],[1,0.5]];portConstraint=eastwest;rounded=0;shadow=0;html=0;fontColor=default;fontStyle=0;" vertex="1" parent="0v5wqwy9z-cO2fE_teIm-19">
          <mxGeometry y="26" width="400" height="34" as="geometry" />
        </mxCell>
        <mxCell id="0v5wqwy9z-cO2fE_teIm-21" value="" style="line;html=1;strokeWidth=1;align=left;verticalAlign=middle;spacingTop=-1;spacingLeft=3;spacingRight=3;rotatable=0;labelPosition=right;points=[];portConstraint=eastwest;fillColor=#dae8fc;strokeColor=#6c8ebf;" parent="0v5wqwy9z-cO2fE_teIm-19" vertex="1">
          <mxGeometry y="60" width="400" height="8" as="geometry" />
        </mxCell>
        <mxCell id="0v5wqwy9z-cO2fE_teIm-22" value="ArrayList&lt;Path&gt; getTransportationInfo(departureLongitude, &#xa;                                  departureLatitude, arrivalLongitude, arrivalLatitude)" style="text;align=left;verticalAlign=top;spacingLeft=4;spacingRight=4;overflow=hidden;rotatable=0;points=[[0,0.5],[1,0.5]];portConstraint=eastwest;rounded=0;shadow=0;html=0;fontStyle=0;fontColor=#000000;" parent="0v5wqwy9z-cO2fE_teIm-19" vertex="1">
          <mxGeometry y="68" width="400" height="40" as="geometry" />
        </mxCell>
        <mxCell id="FkGXfzKXtZ8YiJBUD02L-45" value="JSONObject getPtMapJSON(deptLong, deptLati, arrvLong, arrvLati)" style="text;align=left;verticalAlign=top;spacingLeft=4;spacingRight=4;overflow=hidden;rotatable=0;points=[[0,0.5],[1,0.5]];portConstraint=eastwest;rounded=0;shadow=0;html=0;fontStyle=0;fontColor=#000000;" vertex="1" parent="0v5wqwy9z-cO2fE_teIm-19">
          <mxGeometry y="108" width="400" height="30" as="geometry" />
        </mxCell>
        <mxCell id="FkGXfzKXtZ8YiJBUD02L-44" value="String buildUrl(deptLong, deptLati, arrvLong, arrvLati)" style="text;align=left;verticalAlign=top;spacingLeft=4;spacingRight=4;overflow=hidden;rotatable=0;points=[[0,0.5],[1,0.5]];portConstraint=eastwest;rounded=0;shadow=0;html=0;fontStyle=0;fontColor=#000000;" vertex="1" parent="0v5wqwy9z-cO2fE_teIm-19">
          <mxGeometry y="138" width="400" height="30" as="geometry" />
        </mxCell>
        <mxCell id="FkGXfzKXtZ8YiJBUD02L-47" value="Path getPathByJson(JSONObject pathJson)" style="text;align=left;verticalAlign=top;spacingLeft=4;spacingRight=4;overflow=hidden;rotatable=0;points=[[0,0.5],[1,0.5]];portConstraint=eastwest;rounded=0;shadow=0;html=0;fontStyle=0;fontColor=#000000;" vertex="1" parent="0v5wqwy9z-cO2fE_teIm-19">
          <mxGeometry y="168" width="400" height="30" as="geometry" />
        </mxCell>
        <mxCell id="FkGXfzKXtZ8YiJBUD02L-46" value="ArrayList&lt;Path&gt; setPathList(JSONArray paths)" style="text;align=left;verticalAlign=top;spacingLeft=4;spacingRight=4;overflow=hidden;rotatable=0;points=[[0,0.5],[1,0.5]];portConstraint=eastwest;rounded=0;shadow=0;html=0;fontStyle=0;fontColor=#000000;" vertex="1" parent="0v5wqwy9z-cO2fE_teIm-19">
          <mxGeometry y="198" width="400" height="30" as="geometry" />
        </mxCell>
        <mxCell id="FkGXfzKXtZ8YiJBUD02L-48" value="Node getNodeFromJson(JSONObject nodeJson)" style="text;align=left;verticalAlign=top;spacingLeft=4;spacingRight=4;overflow=hidden;rotatable=0;points=[[0,0.5],[1,0.5]];portConstraint=eastwest;rounded=0;shadow=0;html=0;fontStyle=0;fontColor=#000000;" vertex="1" parent="0v5wqwy9z-cO2fE_teIm-19">
          <mxGeometry y="228" width="400" height="30" as="geometry" />
        </mxCell>
        <mxCell id="FkGXfzKXtZ8YiJBUD02L-49" value="Step getStepFromJson(JSONObject stepJson)" style="text;align=left;verticalAlign=top;spacingLeft=4;spacingRight=4;overflow=hidden;rotatable=0;points=[[0,0.5],[1,0.5]];portConstraint=eastwest;rounded=0;shadow=0;html=0;fontStyle=0;fontColor=#000000;" vertex="1" parent="0v5wqwy9z-cO2fE_teIm-19">
          <mxGeometry y="258" width="400" height="30" as="geometry" />
        </mxCell>
        <mxCell id="FkGXfzKXtZ8YiJBUD02L-51" value="List&lt;ArrivalRoute&gt; createArrivalRouteList(JSONObject stepJson)" style="text;align=left;verticalAlign=top;spacingLeft=4;spacingRight=4;overflow=hidden;rotatable=0;points=[[0,0.5],[1,0.5]];portConstraint=eastwest;rounded=0;shadow=0;html=0;fontStyle=0;fontColor=#000000;" vertex="1" parent="0v5wqwy9z-cO2fE_teIm-19">
          <mxGeometry y="288" width="400" height="30" as="geometry" />
        </mxCell>
        <mxCell id="FkGXfzKXtZ8YiJBUD02L-50" value="ArrivalRoute getArrivalRouteByJson(JSONObject itemJson)" style="text;align=left;verticalAlign=top;spacingLeft=4;spacingRight=4;overflow=hidden;rotatable=0;points=[[0,0.5],[1,0.5]];portConstraint=eastwest;rounded=0;shadow=0;html=0;fontStyle=0;fontColor=#000000;" vertex="1" parent="0v5wqwy9z-cO2fE_teIm-19">
          <mxGeometry y="318" width="400" height="30" as="geometry" />
        </mxCell>
        <mxCell id="q1hTq-5MQLfCPgQxP5bT-2" value="void filterPath(arrivalRouteList)" style="text;align=left;verticalAlign=top;spacingLeft=4;spacingRight=4;overflow=hidden;rotatable=0;points=[[0,0.5],[1,0.5]];portConstraint=eastwest;rounded=0;shadow=0;html=0;fontStyle=0;fontColor=#000000;" parent="0v5wqwy9z-cO2fE_teIm-19" vertex="1">
          <mxGeometry y="348" width="400" height="30" as="geometry" />
        </mxCell>
        <mxCell id="q1hTq-5MQLfCPgQxP5bT-3" value="SearchedRoute" style="swimlane;fontStyle=2;align=center;verticalAlign=top;childLayout=stackLayout;horizontal=1;startSize=26;horizontalStack=0;resizeParent=1;resizeLast=0;collapsible=1;marginBottom=0;rounded=0;shadow=0;strokeWidth=1;fillColor=#eeeeee;strokeColor=#36393d;" parent="WIyWlLk6GJQsqaUBKTNV-1" vertex="1">
          <mxGeometry x="920" y="260" width="200" height="120" as="geometry">
            <mxRectangle x="220" y="120" width="160" height="26" as="alternateBounds" />
          </mxGeometry>
        </mxCell>
        <mxCell id="q1hTq-5MQLfCPgQxP5bT-6" value="startNode (String)" style="text;align=left;verticalAlign=top;spacingLeft=4;spacingRight=4;overflow=hidden;rotatable=0;points=[[0,0.5],[1,0.5]];portConstraint=eastwest;rounded=0;shadow=0;html=0;" parent="q1hTq-5MQLfCPgQxP5bT-3" vertex="1">
          <mxGeometry y="26" width="200" height="26" as="geometry" />
        </mxCell>
        <mxCell id="q1hTq-5MQLfCPgQxP5bT-8" value="endNode (String)" style="text;align=left;verticalAlign=top;spacingLeft=4;spacingRight=4;overflow=hidden;rotatable=0;points=[[0,0.5],[1,0.5]];portConstraint=eastwest;rounded=0;shadow=0;html=0;" parent="q1hTq-5MQLfCPgQxP5bT-3" vertex="1">
          <mxGeometry y="52" width="200" height="26" as="geometry" />
        </mxCell>
        <mxCell id="q1hTq-5MQLfCPgQxP5bT-7" value="" style="line;html=1;strokeWidth=1;align=left;verticalAlign=middle;spacingTop=-1;spacingLeft=3;spacingRight=3;rotatable=0;labelPosition=right;points=[];portConstraint=eastwest;fillColor=#eeeeee;strokeColor=#36393d;" parent="q1hTq-5MQLfCPgQxP5bT-3" vertex="1">
          <mxGeometry y="78" width="200" height="8" as="geometry" />
        </mxCell>
        <mxCell id="FkGXfzKXtZ8YiJBUD02L-16" value="SearchedRoute fromEntity (Route)" style="text;align=left;verticalAlign=top;spacingLeft=4;spacingRight=4;overflow=hidden;rotatable=0;points=[[0,0.5],[1,0.5]];portConstraint=eastwest;rounded=0;shadow=0;html=0;fontStyle=2" vertex="1" parent="q1hTq-5MQLfCPgQxP5bT-3">
          <mxGeometry y="86" width="200" height="26" as="geometry" />
        </mxCell>
        <mxCell id="X7Wm0wWlR6N1wWY1FZSC-0" value="NodeBase" style="swimlane;fontStyle=2;align=center;verticalAlign=top;childLayout=stackLayout;horizontal=1;startSize=26;horizontalStack=0;resizeParent=1;resizeLast=0;collapsible=1;marginBottom=0;rounded=0;shadow=0;strokeWidth=1;fillColor=#dae8fc;strokeColor=#6c8ebf;" parent="WIyWlLk6GJQsqaUBKTNV-1" vertex="1">
          <mxGeometry x="420" y="120" width="160" height="132" as="geometry">
            <mxRectangle x="220" y="120" width="160" height="26" as="alternateBounds" />
          </mxGeometry>
        </mxCell>
        <mxCell id="X7Wm0wWlR6N1wWY1FZSC-1" value="id (String)" style="text;align=left;verticalAlign=top;spacingLeft=4;spacingRight=4;overflow=hidden;rotatable=0;points=[[0,0.5],[1,0.5]];portConstraint=eastwest;" parent="X7Wm0wWlR6N1wWY1FZSC-0" vertex="1">
          <mxGeometry y="26" width="160" height="26" as="geometry" />
        </mxCell>
        <mxCell id="X7Wm0wWlR6N1wWY1FZSC-2" value="name (String)" style="text;align=left;verticalAlign=top;spacingLeft=4;spacingRight=4;overflow=hidden;rotatable=0;points=[[0,0.5],[1,0.5]];portConstraint=eastwest;rounded=0;shadow=0;html=0;" parent="X7Wm0wWlR6N1wWY1FZSC-0" vertex="1">
          <mxGeometry y="52" width="160" height="26" as="geometry" />
        </mxCell>
        <mxCell id="X7Wm0wWlR6N1wWY1FZSC-3" value="no (String)" style="text;align=left;verticalAlign=top;spacingLeft=4;spacingRight=4;overflow=hidden;rotatable=0;points=[[0,0.5],[1,0.5]];portConstraint=eastwest;rounded=0;shadow=0;html=0;" parent="X7Wm0wWlR6N1wWY1FZSC-0" vertex="1">
          <mxGeometry y="78" width="160" height="26" as="geometry" />
        </mxCell>
        <mxCell id="X7Wm0wWlR6N1wWY1FZSC-6" value="" style="line;html=1;strokeWidth=1;align=left;verticalAlign=middle;spacingTop=-1;spacingLeft=3;spacingRight=3;rotatable=0;labelPosition=right;points=[];portConstraint=eastwest;fillColor=#dae8fc;strokeColor=#6c8ebf;" parent="X7Wm0wWlR6N1wWY1FZSC-0" vertex="1">
          <mxGeometry y="104" width="160" height="8" as="geometry" />
        </mxCell>
        <mxCell id="X7Wm0wWlR6N1wWY1FZSC-7" value="RouteBase" style="swimlane;fontStyle=2;align=center;verticalAlign=top;childLayout=stackLayout;horizontal=1;startSize=26;horizontalStack=0;resizeParent=1;resizeLast=0;collapsible=1;marginBottom=0;rounded=0;shadow=0;strokeWidth=1;fillColor=#dae8fc;strokeColor=#6c8ebf;" parent="WIyWlLk6GJQsqaUBKTNV-1" vertex="1">
          <mxGeometry x="960" y="120" width="160" height="100" as="geometry">
            <mxRectangle x="220" y="120" width="160" height="26" as="alternateBounds" />
          </mxGeometry>
        </mxCell>
        <mxCell id="X7Wm0wWlR6N1wWY1FZSC-8" value="id (String)" style="text;align=left;verticalAlign=top;spacingLeft=4;spacingRight=4;overflow=hidden;rotatable=0;points=[[0,0.5],[1,0.5]];portConstraint=eastwest;" parent="X7Wm0wWlR6N1wWY1FZSC-7" vertex="1">
          <mxGeometry y="26" width="160" height="26" as="geometry" />
        </mxCell>
        <mxCell id="X7Wm0wWlR6N1wWY1FZSC-9" value="no (String)" style="text;align=left;verticalAlign=top;spacingLeft=4;spacingRight=4;overflow=hidden;rotatable=0;points=[[0,0.5],[1,0.5]];portConstraint=eastwest;rounded=0;shadow=0;html=0;" parent="X7Wm0wWlR6N1wWY1FZSC-7" vertex="1">
          <mxGeometry y="52" width="160" height="26" as="geometry" />
        </mxCell>
        <mxCell id="X7Wm0wWlR6N1wWY1FZSC-11" value="" style="line;html=1;strokeWidth=1;align=left;verticalAlign=middle;spacingTop=-1;spacingLeft=3;spacingRight=3;rotatable=0;labelPosition=right;points=[];portConstraint=eastwest;fillColor=#dae8fc;strokeColor=#6c8ebf;" parent="X7Wm0wWlR6N1wWY1FZSC-7" vertex="1">
          <mxGeometry y="78" width="160" height="8" as="geometry" />
        </mxCell>
        <mxCell id="X7Wm0wWlR6N1wWY1FZSC-13" value="" style="endArrow=block;endSize=10;endFill=0;shadow=0;strokeWidth=1;rounded=0;edgeStyle=elbowEdgeStyle;elbow=vertical;entryX=0.75;entryY=1;entryDx=0;entryDy=0;exitX=0.5;exitY=0;exitDx=0;exitDy=0;" parent="WIyWlLk6GJQsqaUBKTNV-1" source="NNAgDV5kl5tZtwMsC2Bn-0" target="X7Wm0wWlR6N1wWY1FZSC-0" edge="1">
          <mxGeometry width="160" relative="1" as="geometry">
            <mxPoint x="520" y="300" as="sourcePoint" />
            <mxPoint x="640.17" y="250" as="targetPoint" />
            <Array as="points">
              <mxPoint x="420" y="280" />
            </Array>
          </mxGeometry>
        </mxCell>
        <mxCell id="X7Wm0wWlR6N1wWY1FZSC-14" value="" style="endArrow=block;endSize=10;endFill=0;shadow=0;strokeWidth=1;rounded=0;elbow=vertical;exitX=0.5;exitY=0;exitDx=0;exitDy=0;edgeStyle=orthogonalEdgeStyle;" parent="WIyWlLk6GJQsqaUBKTNV-1" source="zkfFHV4jXpPFQw0GAbJ--0" edge="1">
          <mxGeometry width="160" relative="1" as="geometry">
            <mxPoint x="730" y="330" as="sourcePoint" />
            <mxPoint x="980" y="220" as="targetPoint" />
            <Array as="points">
              <mxPoint x="815" y="250" />
              <mxPoint x="980" y="250" />
            </Array>
          </mxGeometry>
        </mxCell>
        <mxCell id="X7Wm0wWlR6N1wWY1FZSC-17" value="" style="endArrow=open;shadow=0;strokeWidth=1;rounded=0;endFill=1;entryX=0.5;entryY=1;entryDx=0;entryDy=0;exitX=0.5;exitY=0;exitDx=0;exitDy=0;" parent="WIyWlLk6GJQsqaUBKTNV-1" source="NNAgDV5kl5tZtwMsC2Bn-58" target="zkfFHV4jXpPFQw0GAbJ--6" edge="1">
          <mxGeometry relative="1" as="geometry">
            <mxPoint x="510" y="290" as="sourcePoint" />
            <mxPoint x="610" y="305" as="targetPoint" />
          </mxGeometry>
        </mxCell>
        <mxCell id="X7Wm0wWlR6N1wWY1FZSC-18" value="*" style="resizable=0;align=right;verticalAlign=bottom;labelBackgroundColor=none;fontSize=12;" parent="X7Wm0wWlR6N1wWY1FZSC-17" connectable="0" vertex="1">
          <mxGeometry x="1" relative="1" as="geometry">
            <mxPoint x="-5" y="21" as="offset" />
          </mxGeometry>
        </mxCell>
        <mxCell id="X7Wm0wWlR6N1wWY1FZSC-19" value="contains" style="text;html=1;resizable=0;points=[];;align=center;verticalAlign=middle;labelBackgroundColor=none;rounded=0;shadow=0;strokeWidth=1;fontSize=12;" parent="X7Wm0wWlR6N1wWY1FZSC-17" vertex="1" connectable="0">
          <mxGeometry x="0.5" y="49" relative="1" as="geometry">
            <mxPoint x="22" y="20" as="offset" />
          </mxGeometry>
        </mxCell>
        <mxCell id="X7Wm0wWlR6N1wWY1FZSC-23" value="" style="endArrow=block;endSize=10;endFill=0;shadow=0;strokeWidth=1;rounded=0;elbow=vertical;exitX=0.5;exitY=0;exitDx=0;exitDy=0;" parent="WIyWlLk6GJQsqaUBKTNV-1" source="q1hTq-5MQLfCPgQxP5bT-3" edge="1">
          <mxGeometry width="160" relative="1" as="geometry">
            <mxPoint x="1000" y="260" as="sourcePoint" />
            <mxPoint x="1020" y="220" as="targetPoint" />
          </mxGeometry>
        </mxCell>
        <mxCell id="X7Wm0wWlR6N1wWY1FZSC-24" value="" style="endArrow=block;endSize=10;endFill=0;shadow=0;strokeWidth=1;rounded=0;elbow=vertical;entryX=0.75;entryY=1;entryDx=0;entryDy=0;edgeStyle=orthogonalEdgeStyle;exitX=0.5;exitY=0;exitDx=0;exitDy=0;" parent="WIyWlLk6GJQsqaUBKTNV-1" source="NNAgDV5kl5tZtwMsC2Bn-48" target="X7Wm0wWlR6N1wWY1FZSC-7" edge="1">
          <mxGeometry width="160" relative="1" as="geometry">
            <mxPoint x="1200" y="260" as="sourcePoint" />
            <mxPoint x="1040" y="230" as="targetPoint" />
            <Array as="points">
              <mxPoint x="1230" y="250" />
              <mxPoint x="1090" y="250" />
            </Array>
          </mxGeometry>
        </mxCell>
        <mxCell id="X7Wm0wWlR6N1wWY1FZSC-25" value="" style="endArrow=open;shadow=0;strokeWidth=1;rounded=0;endFill=1;entryX=0.5;entryY=1;entryDx=0;entryDy=0;exitX=0.5;exitY=0;exitDx=0;exitDy=0;" parent="WIyWlLk6GJQsqaUBKTNV-1" source="NNAgDV5kl5tZtwMsC2Bn-44" target="NNAgDV5kl5tZtwMsC2Bn-48" edge="1">
          <mxGeometry x="0.5" y="41" relative="1" as="geometry">
            <mxPoint x="1020" y="420" as="sourcePoint" />
            <mxPoint x="1160" y="387" as="targetPoint" />
            <mxPoint x="-40" y="32" as="offset" />
          </mxGeometry>
        </mxCell>
        <mxCell id="X7Wm0wWlR6N1wWY1FZSC-26" value="*" style="resizable=0;align=right;verticalAlign=bottom;labelBackgroundColor=none;fontSize=12;" parent="X7Wm0wWlR6N1wWY1FZSC-25" connectable="0" vertex="1">
          <mxGeometry x="1" relative="1" as="geometry">
            <mxPoint x="-7" y="17" as="offset" />
          </mxGeometry>
        </mxCell>
        <mxCell id="X7Wm0wWlR6N1wWY1FZSC-27" value="contains" style="text;html=1;resizable=0;points=[];;align=center;verticalAlign=middle;labelBackgroundColor=none;rounded=0;shadow=0;strokeWidth=1;fontSize=12;" parent="X7Wm0wWlR6N1wWY1FZSC-25" vertex="1" connectable="0">
          <mxGeometry x="0.5" y="49" relative="1" as="geometry">
            <mxPoint x="22" y="19" as="offset" />
          </mxGeometry>
        </mxCell>
        <mxCell id="X7Wm0wWlR6N1wWY1FZSC-31" value="KIS Server - Design Class Diagram" style="text;html=1;strokeColor=none;fillColor=none;align=left;verticalAlign=middle;whiteSpace=wrap;rounded=0;fontStyle=1;fontSize=30;fontFamily=Georgia;" parent="WIyWlLk6GJQsqaUBKTNV-1" vertex="1">
          <mxGeometry x="40" y="40" width="570" height="30" as="geometry" />
        </mxCell>
        <mxCell id="X7Wm0wWlR6N1wWY1FZSC-37" value="Guideline" style="ellipse;shape=cloud;whiteSpace=wrap;html=1;fontFamily=Georgia;fontSize=12;fontStyle=1" parent="WIyWlLk6GJQsqaUBKTNV-1" vertex="1">
          <mxGeometry x="100" y="120" width="120" height="50" as="geometry" />
        </mxCell>
        <mxCell id="X7Wm0wWlR6N1wWY1FZSC-38" value="Entity" style="swimlane;fontStyle=2;align=center;verticalAlign=top;childLayout=stackLayout;horizontal=1;startSize=26;horizontalStack=0;resizeParent=1;resizeLast=0;collapsible=1;marginBottom=0;rounded=0;shadow=0;strokeWidth=1;fillColor=#f8cecc;strokeColor=#b85450;" parent="WIyWlLk6GJQsqaUBKTNV-1" vertex="1">
          <mxGeometry x="120" y="185" width="80" height="60" as="geometry">
            <mxRectangle x="340" y="380" width="170" height="26" as="alternateBounds" />
          </mxGeometry>
        </mxCell>
        <mxCell id="X7Wm0wWlR6N1wWY1FZSC-39" value=" " style="text;align=left;verticalAlign=top;spacingLeft=4;spacingRight=4;overflow=hidden;rotatable=0;points=[[0,0.5],[1,0.5]];portConstraint=eastwest;fontSize=5;" parent="X7Wm0wWlR6N1wWY1FZSC-38" vertex="1">
          <mxGeometry y="26" width="80" height="14" as="geometry" />
        </mxCell>
        <mxCell id="X7Wm0wWlR6N1wWY1FZSC-40" value="" style="line;html=1;strokeWidth=1;align=left;verticalAlign=middle;spacingTop=-1;spacingLeft=3;spacingRight=3;rotatable=0;labelPosition=right;points=[];portConstraint=eastwest;fillColor=#f8cecc;strokeColor=#b85450;" parent="X7Wm0wWlR6N1wWY1FZSC-38" vertex="1">
          <mxGeometry y="40" width="80" height="8" as="geometry" />
        </mxCell>
        <mxCell id="X7Wm0wWlR6N1wWY1FZSC-41" value="Base Class" style="swimlane;fontStyle=2;align=center;verticalAlign=top;childLayout=stackLayout;horizontal=1;startSize=26;horizontalStack=0;resizeParent=1;resizeLast=0;collapsible=1;marginBottom=0;rounded=0;shadow=0;strokeWidth=1;fillColor=#dae8fc;strokeColor=#6c8ebf;" parent="WIyWlLk6GJQsqaUBKTNV-1" vertex="1">
          <mxGeometry x="120" y="256" width="80" height="60" as="geometry">
            <mxRectangle x="340" y="380" width="170" height="26" as="alternateBounds" />
          </mxGeometry>
        </mxCell>
        <mxCell id="X7Wm0wWlR6N1wWY1FZSC-42" value=" " style="text;align=left;verticalAlign=top;spacingLeft=4;spacingRight=4;overflow=hidden;rotatable=0;points=[[0,0.5],[1,0.5]];portConstraint=eastwest;fontSize=5;" parent="X7Wm0wWlR6N1wWY1FZSC-41" vertex="1">
          <mxGeometry y="26" width="80" height="14" as="geometry" />
        </mxCell>
        <mxCell id="X7Wm0wWlR6N1wWY1FZSC-43" value="" style="line;html=1;strokeWidth=1;align=left;verticalAlign=middle;spacingTop=-1;spacingLeft=3;spacingRight=3;rotatable=0;labelPosition=right;points=[];portConstraint=eastwest;fillColor=#dae8fc;strokeColor=#6c8ebf;" parent="X7Wm0wWlR6N1wWY1FZSC-41" vertex="1">
          <mxGeometry y="40" width="80" height="8" as="geometry" />
        </mxCell>
        <mxCell id="X7Wm0wWlR6N1wWY1FZSC-45" value="Dto" style="swimlane;fontStyle=2;align=center;verticalAlign=top;childLayout=stackLayout;horizontal=1;startSize=26;horizontalStack=0;resizeParent=1;resizeLast=0;collapsible=1;marginBottom=0;rounded=0;shadow=0;strokeWidth=1;fillColor=#d5e8d4;strokeColor=#82b366;" parent="WIyWlLk6GJQsqaUBKTNV-1" vertex="1">
          <mxGeometry x="120" y="326" width="80" height="60" as="geometry">
            <mxRectangle x="340" y="380" width="170" height="26" as="alternateBounds" />
          </mxGeometry>
        </mxCell>
        <mxCell id="X7Wm0wWlR6N1wWY1FZSC-46" value=" " style="text;align=left;verticalAlign=top;spacingLeft=4;spacingRight=4;overflow=hidden;rotatable=0;points=[[0,0.5],[1,0.5]];portConstraint=eastwest;fontSize=5;" parent="X7Wm0wWlR6N1wWY1FZSC-45" vertex="1">
          <mxGeometry y="26" width="80" height="14" as="geometry" />
        </mxCell>
        <mxCell id="X7Wm0wWlR6N1wWY1FZSC-47" value="" style="line;html=1;strokeWidth=1;align=left;verticalAlign=middle;spacingTop=-1;spacingLeft=3;spacingRight=3;rotatable=0;labelPosition=right;points=[];portConstraint=eastwest;fillColor=#d5e8d4;strokeColor=#82b366;" parent="X7Wm0wWlR6N1wWY1FZSC-45" vertex="1">
          <mxGeometry y="40" width="80" height="8" as="geometry" />
        </mxCell>
        <mxCell id="X7Wm0wWlR6N1wWY1FZSC-68" value="TAGO_BusArrivalInfo" style="swimlane;fontStyle=2;align=center;verticalAlign=top;childLayout=stackLayout;horizontal=1;startSize=26;horizontalStack=0;resizeParent=1;resizeLast=0;collapsible=1;marginBottom=0;rounded=0;shadow=0;strokeWidth=1;fillColor=#d5e8d4;strokeColor=#82b366;" parent="WIyWlLk6GJQsqaUBKTNV-1" vertex="1">
          <mxGeometry x="1380" y="120" width="240" height="260" as="geometry">
            <mxRectangle x="340" y="380" width="170" height="26" as="alternateBounds" />
          </mxGeometry>
        </mxCell>
        <mxCell id="X7Wm0wWlR6N1wWY1FZSC-69" value="nodeid (String)" style="text;align=left;verticalAlign=top;spacingLeft=4;spacingRight=4;overflow=hidden;rotatable=0;points=[[0,0.5],[1,0.5]];portConstraint=eastwest;" parent="X7Wm0wWlR6N1wWY1FZSC-68" vertex="1">
          <mxGeometry y="26" width="240" height="26" as="geometry" />
        </mxCell>
        <mxCell id="X7Wm0wWlR6N1wWY1FZSC-70" value="nodenm (String)" style="text;align=left;verticalAlign=top;spacingLeft=4;spacingRight=4;overflow=hidden;rotatable=0;points=[[0,0.5],[1,0.5]];portConstraint=eastwest;" parent="X7Wm0wWlR6N1wWY1FZSC-68" vertex="1">
          <mxGeometry y="52" width="240" height="26" as="geometry" />
        </mxCell>
        <mxCell id="X7Wm0wWlR6N1wWY1FZSC-71" value="routeid (String)" style="text;align=left;verticalAlign=top;spacingLeft=4;spacingRight=4;overflow=hidden;rotatable=0;points=[[0,0.5],[1,0.5]];portConstraint=eastwest;fontStyle=0" parent="X7Wm0wWlR6N1wWY1FZSC-68" vertex="1">
          <mxGeometry y="78" width="240" height="26" as="geometry" />
        </mxCell>
        <mxCell id="X7Wm0wWlR6N1wWY1FZSC-72" value="routeno (String)" style="text;align=left;verticalAlign=top;spacingLeft=4;spacingRight=4;overflow=hidden;rotatable=0;points=[[0,0.5],[1,0.5]];portConstraint=eastwest;fontStyle=0" parent="X7Wm0wWlR6N1wWY1FZSC-68" vertex="1">
          <mxGeometry y="104" width="240" height="26" as="geometry" />
        </mxCell>
        <mxCell id="X7Wm0wWlR6N1wWY1FZSC-78" value="routetp (String)" style="text;align=left;verticalAlign=top;spacingLeft=4;spacingRight=4;overflow=hidden;rotatable=0;points=[[0,0.5],[1,0.5]];portConstraint=eastwest;fontStyle=0" parent="X7Wm0wWlR6N1wWY1FZSC-68" vertex="1">
          <mxGeometry y="130" width="240" height="26" as="geometry" />
        </mxCell>
        <mxCell id="X7Wm0wWlR6N1wWY1FZSC-79" value="arrprevstationcnt (Integer)" style="text;align=left;verticalAlign=top;spacingLeft=4;spacingRight=4;overflow=hidden;rotatable=0;points=[[0,0.5],[1,0.5]];portConstraint=eastwest;fontStyle=0" parent="X7Wm0wWlR6N1wWY1FZSC-68" vertex="1">
          <mxGeometry y="156" width="240" height="26" as="geometry" />
        </mxCell>
        <mxCell id="X7Wm0wWlR6N1wWY1FZSC-80" value="vehicletp (String)" style="text;align=left;verticalAlign=top;spacingLeft=4;spacingRight=4;overflow=hidden;rotatable=0;points=[[0,0.5],[1,0.5]];portConstraint=eastwest;fontStyle=0" parent="X7Wm0wWlR6N1wWY1FZSC-68" vertex="1">
          <mxGeometry y="182" width="240" height="26" as="geometry" />
        </mxCell>
        <mxCell id="X7Wm0wWlR6N1wWY1FZSC-81" value="arrtime (Integer)" style="text;align=left;verticalAlign=top;spacingLeft=4;spacingRight=4;overflow=hidden;rotatable=0;points=[[0,0.5],[1,0.5]];portConstraint=eastwest;fontStyle=0" parent="X7Wm0wWlR6N1wWY1FZSC-68" vertex="1">
          <mxGeometry y="208" width="240" height="26" as="geometry" />
        </mxCell>
        <mxCell id="X7Wm0wWlR6N1wWY1FZSC-73" value="" style="line;html=1;strokeWidth=1;align=left;verticalAlign=middle;spacingTop=-1;spacingLeft=3;spacingRight=3;rotatable=0;labelPosition=right;points=[];portConstraint=eastwest;fillColor=#d5e8d4;strokeColor=#82b366;" parent="X7Wm0wWlR6N1wWY1FZSC-68" vertex="1">
          <mxGeometry y="234" width="240" height="8" as="geometry" />
        </mxCell>
        <mxCell id="X7Wm0wWlR6N1wWY1FZSC-94" value="TAGO_BusLocationInfo" style="swimlane;fontStyle=2;align=center;verticalAlign=top;childLayout=stackLayout;horizontal=1;startSize=26;horizontalStack=0;resizeParent=1;resizeLast=0;collapsible=1;marginBottom=0;rounded=0;shadow=0;strokeWidth=1;fillColor=#d5e8d4;strokeColor=#82b366;" parent="WIyWlLk6GJQsqaUBKTNV-1" vertex="1">
          <mxGeometry x="1380" y="400" width="240" height="260" as="geometry">
            <mxRectangle x="340" y="380" width="170" height="26" as="alternateBounds" />
          </mxGeometry>
        </mxCell>
        <mxCell id="X7Wm0wWlR6N1wWY1FZSC-95" value="routenm (String)" style="text;align=left;verticalAlign=top;spacingLeft=4;spacingRight=4;overflow=hidden;rotatable=0;points=[[0,0.5],[1,0.5]];portConstraint=eastwest;" parent="X7Wm0wWlR6N1wWY1FZSC-94" vertex="1">
          <mxGeometry y="26" width="240" height="26" as="geometry" />
        </mxCell>
        <mxCell id="X7Wm0wWlR6N1wWY1FZSC-96" value="gpslati (Double)" style="text;align=left;verticalAlign=top;spacingLeft=4;spacingRight=4;overflow=hidden;rotatable=0;points=[[0,0.5],[1,0.5]];portConstraint=eastwest;" parent="X7Wm0wWlR6N1wWY1FZSC-94" vertex="1">
          <mxGeometry y="52" width="240" height="26" as="geometry" />
        </mxCell>
        <mxCell id="X7Wm0wWlR6N1wWY1FZSC-97" value="gpslong (Double)" style="text;align=left;verticalAlign=top;spacingLeft=4;spacingRight=4;overflow=hidden;rotatable=0;points=[[0,0.5],[1,0.5]];portConstraint=eastwest;fontStyle=0" parent="X7Wm0wWlR6N1wWY1FZSC-94" vertex="1">
          <mxGeometry y="78" width="240" height="26" as="geometry" />
        </mxCell>
        <mxCell id="X7Wm0wWlR6N1wWY1FZSC-98" value="nodeord (Integer)" style="text;align=left;verticalAlign=top;spacingLeft=4;spacingRight=4;overflow=hidden;rotatable=0;points=[[0,0.5],[1,0.5]];portConstraint=eastwest;fontStyle=0" parent="X7Wm0wWlR6N1wWY1FZSC-94" vertex="1">
          <mxGeometry y="104" width="240" height="26" as="geometry" />
        </mxCell>
        <mxCell id="X7Wm0wWlR6N1wWY1FZSC-99" value="nodenm (String)" style="text;align=left;verticalAlign=top;spacingLeft=4;spacingRight=4;overflow=hidden;rotatable=0;points=[[0,0.5],[1,0.5]];portConstraint=eastwest;fontStyle=0" parent="X7Wm0wWlR6N1wWY1FZSC-94" vertex="1">
          <mxGeometry y="130" width="240" height="26" as="geometry" />
        </mxCell>
        <mxCell id="X7Wm0wWlR6N1wWY1FZSC-100" value="nodeid (String)" style="text;align=left;verticalAlign=top;spacingLeft=4;spacingRight=4;overflow=hidden;rotatable=0;points=[[0,0.5],[1,0.5]];portConstraint=eastwest;fontStyle=0" parent="X7Wm0wWlR6N1wWY1FZSC-94" vertex="1">
          <mxGeometry y="156" width="240" height="26" as="geometry" />
        </mxCell>
        <mxCell id="X7Wm0wWlR6N1wWY1FZSC-101" value="routetp (String)" style="text;align=left;verticalAlign=top;spacingLeft=4;spacingRight=4;overflow=hidden;rotatable=0;points=[[0,0.5],[1,0.5]];portConstraint=eastwest;fontStyle=0" parent="X7Wm0wWlR6N1wWY1FZSC-94" vertex="1">
          <mxGeometry y="182" width="240" height="26" as="geometry" />
        </mxCell>
        <mxCell id="X7Wm0wWlR6N1wWY1FZSC-102" value="vehicleno (String)" style="text;align=left;verticalAlign=top;spacingLeft=4;spacingRight=4;overflow=hidden;rotatable=0;points=[[0,0.5],[1,0.5]];portConstraint=eastwest;fontStyle=0" parent="X7Wm0wWlR6N1wWY1FZSC-94" vertex="1">
          <mxGeometry y="208" width="240" height="26" as="geometry" />
        </mxCell>
        <mxCell id="X7Wm0wWlR6N1wWY1FZSC-103" value="" style="line;html=1;strokeWidth=1;align=left;verticalAlign=middle;spacingTop=-1;spacingLeft=3;spacingRight=3;rotatable=0;labelPosition=right;points=[];portConstraint=eastwest;fillColor=#d5e8d4;strokeColor=#82b366;" parent="X7Wm0wWlR6N1wWY1FZSC-94" vertex="1">
          <mxGeometry y="234" width="240" height="8" as="geometry" />
        </mxCell>
        <mxCell id="X7Wm0wWlR6N1wWY1FZSC-118" value="TAGO_AroundNodeInfo" style="swimlane;fontStyle=2;align=center;verticalAlign=top;childLayout=stackLayout;horizontal=1;startSize=26;horizontalStack=0;resizeParent=1;resizeLast=0;collapsible=1;marginBottom=0;rounded=0;shadow=0;strokeWidth=1;fillColor=#d5e8d4;strokeColor=#82b366;" parent="WIyWlLk6GJQsqaUBKTNV-1" vertex="1">
          <mxGeometry x="1380" y="680" width="240" height="180" as="geometry">
            <mxRectangle x="340" y="380" width="170" height="26" as="alternateBounds" />
          </mxGeometry>
        </mxCell>
        <mxCell id="X7Wm0wWlR6N1wWY1FZSC-119" value="gpslati (Double)" style="text;align=left;verticalAlign=top;spacingLeft=4;spacingRight=4;overflow=hidden;rotatable=0;points=[[0,0.5],[1,0.5]];portConstraint=eastwest;" parent="X7Wm0wWlR6N1wWY1FZSC-118" vertex="1">
          <mxGeometry y="26" width="240" height="26" as="geometry" />
        </mxCell>
        <mxCell id="X7Wm0wWlR6N1wWY1FZSC-121" value="gpslong (Double)" style="text;align=left;verticalAlign=top;spacingLeft=4;spacingRight=4;overflow=hidden;rotatable=0;points=[[0,0.5],[1,0.5]];portConstraint=eastwest;fontStyle=0" parent="X7Wm0wWlR6N1wWY1FZSC-118" vertex="1">
          <mxGeometry y="52" width="240" height="26" as="geometry" />
        </mxCell>
        <mxCell id="X7Wm0wWlR6N1wWY1FZSC-124" value="nodeid (String)" style="text;align=left;verticalAlign=top;spacingLeft=4;spacingRight=4;overflow=hidden;rotatable=0;points=[[0,0.5],[1,0.5]];portConstraint=eastwest;fontStyle=0" parent="X7Wm0wWlR6N1wWY1FZSC-118" vertex="1">
          <mxGeometry y="78" width="240" height="26" as="geometry" />
        </mxCell>
        <mxCell id="X7Wm0wWlR6N1wWY1FZSC-123" value="nodenm (String)" style="text;align=left;verticalAlign=top;spacingLeft=4;spacingRight=4;overflow=hidden;rotatable=0;points=[[0,0.5],[1,0.5]];portConstraint=eastwest;fontStyle=0" parent="X7Wm0wWlR6N1wWY1FZSC-118" vertex="1">
          <mxGeometry y="104" width="240" height="26" as="geometry" />
        </mxCell>
        <mxCell id="X7Wm0wWlR6N1wWY1FZSC-125" value="citycode (Integer)" style="text;align=left;verticalAlign=top;spacingLeft=4;spacingRight=4;overflow=hidden;rotatable=0;points=[[0,0.5],[1,0.5]];portConstraint=eastwest;fontStyle=0" parent="X7Wm0wWlR6N1wWY1FZSC-118" vertex="1">
          <mxGeometry y="130" width="240" height="26" as="geometry" />
        </mxCell>
        <mxCell id="X7Wm0wWlR6N1wWY1FZSC-127" value="" style="line;html=1;strokeWidth=1;align=left;verticalAlign=middle;spacingTop=-1;spacingLeft=3;spacingRight=3;rotatable=0;labelPosition=right;points=[];portConstraint=eastwest;fillColor=#d5e8d4;strokeColor=#82b366;" parent="X7Wm0wWlR6N1wWY1FZSC-118" vertex="1">
          <mxGeometry y="156" width="240" height="8" as="geometry" />
        </mxCell>
        <mxCell id="FkGXfzKXtZ8YiJBUD02L-13" value="" style="endArrow=open;shadow=0;strokeWidth=1;rounded=0;endFill=1;edgeStyle=orthogonalEdgeStyle;exitX=0;exitY=0.5;exitDx=0;exitDy=0;" edge="1" parent="WIyWlLk6GJQsqaUBKTNV-1" source="NNAgDV5kl5tZtwMsC2Bn-38">
          <mxGeometry relative="1" as="geometry">
            <mxPoint x="780" y="610" as="sourcePoint" />
            <mxPoint x="560" y="410" as="targetPoint" />
            <Array as="points">
              <mxPoint x="780" y="527" />
              <mxPoint x="780" y="610" />
              <mxPoint x="560" y="610" />
              <mxPoint x="560" y="410" />
            </Array>
          </mxGeometry>
        </mxCell>
        <mxCell id="FkGXfzKXtZ8YiJBUD02L-15" value="contains" style="text;html=1;resizable=0;points=[];;align=center;verticalAlign=middle;labelBackgroundColor=none;rounded=0;shadow=0;strokeWidth=1;fontSize=12;" vertex="1" connectable="0" parent="FkGXfzKXtZ8YiJBUD02L-13">
          <mxGeometry x="0.5" y="49" relative="1" as="geometry">
            <mxPoint x="249" y="80" as="offset" />
          </mxGeometry>
        </mxCell>
        <mxCell id="FkGXfzKXtZ8YiJBUD02L-20" value="RouteSeq" style="swimlane;fontStyle=2;align=center;verticalAlign=top;childLayout=stackLayout;horizontal=1;startSize=26;horizontalStack=0;resizeParent=1;resizeLast=0;collapsible=1;marginBottom=0;rounded=0;shadow=0;strokeWidth=1;fillColor=#f8cecc;strokeColor=#b85450;" vertex="1" parent="WIyWlLk6GJQsqaUBKTNV-1">
          <mxGeometry x="590" y="435" width="170" height="150" as="geometry">
            <mxRectangle x="220" y="120" width="160" height="26" as="alternateBounds" />
          </mxGeometry>
        </mxCell>
        <mxCell id="FkGXfzKXtZ8YiJBUD02L-21" value="id (Long)" style="text;align=left;verticalAlign=top;spacingLeft=4;spacingRight=4;overflow=hidden;rotatable=0;points=[[0,0.5],[1,0.5]];portConstraint=eastwest;rounded=0;shadow=0;html=0;" vertex="1" parent="FkGXfzKXtZ8YiJBUD02L-20">
          <mxGeometry y="26" width="170" height="26" as="geometry" />
        </mxCell>
        <mxCell id="FkGXfzKXtZ8YiJBUD02L-22" value="route (Route)" style="text;align=left;verticalAlign=top;spacingLeft=4;spacingRight=4;overflow=hidden;rotatable=0;points=[[0,0.5],[1,0.5]];portConstraint=eastwest;rounded=0;shadow=0;html=0;" vertex="1" parent="FkGXfzKXtZ8YiJBUD02L-20">
          <mxGeometry y="52" width="170" height="26" as="geometry" />
        </mxCell>
        <mxCell id="FkGXfzKXtZ8YiJBUD02L-23" value="node (Node)" style="text;align=left;verticalAlign=top;spacingLeft=4;spacingRight=4;overflow=hidden;rotatable=0;points=[[0,0.5],[1,0.5]];portConstraint=eastwest;rounded=0;shadow=0;html=0;" vertex="1" parent="FkGXfzKXtZ8YiJBUD02L-20">
          <mxGeometry y="78" width="170" height="26" as="geometry" />
        </mxCell>
        <mxCell id="FkGXfzKXtZ8YiJBUD02L-25" value="nodeOrder (Integer)" style="text;align=left;verticalAlign=top;spacingLeft=4;spacingRight=4;overflow=hidden;rotatable=0;points=[[0,0.5],[1,0.5]];portConstraint=eastwest;rounded=0;shadow=0;html=0;" vertex="1" parent="FkGXfzKXtZ8YiJBUD02L-20">
          <mxGeometry y="104" width="170" height="26" as="geometry" />
        </mxCell>
        <mxCell id="FkGXfzKXtZ8YiJBUD02L-24" value="" style="line;html=1;strokeWidth=1;align=left;verticalAlign=middle;spacingTop=-1;spacingLeft=3;spacingRight=3;rotatable=0;labelPosition=right;points=[];portConstraint=eastwest;fillColor=#f8cecc;strokeColor=#b85450;" vertex="1" parent="FkGXfzKXtZ8YiJBUD02L-20">
          <mxGeometry y="130" width="170" height="8" as="geometry" />
        </mxCell>
        <mxCell id="zkfFHV4jXpPFQw0GAbJ--26" value="" style="endArrow=open;shadow=0;strokeWidth=1;rounded=0;endFill=1;edgeStyle=orthogonalEdgeStyle;exitX=0;exitY=0.5;exitDx=0;exitDy=0;entryX=1.014;entryY=0.187;entryDx=0;entryDy=0;entryPerimeter=0;" parent="WIyWlLk6GJQsqaUBKTNV-1" source="FkGXfzKXtZ8YiJBUD02L-18" target="NNAgDV5kl5tZtwMsC2Bn-0" edge="1">
          <mxGeometry relative="1" as="geometry">
            <mxPoint x="530" y="272" as="sourcePoint" />
            <mxPoint x="600" y="350" as="targetPoint" />
            <Array as="points" />
          </mxGeometry>
        </mxCell>
        <mxCell id="zkfFHV4jXpPFQw0GAbJ--28" value="*" style="resizable=0;align=right;verticalAlign=bottom;labelBackgroundColor=none;fontSize=12;" parent="zkfFHV4jXpPFQw0GAbJ--26" connectable="0" vertex="1">
          <mxGeometry x="1" relative="1" as="geometry">
            <mxPoint x="20" y="1" as="offset" />
          </mxGeometry>
        </mxCell>
        <mxCell id="zkfFHV4jXpPFQw0GAbJ--29" value="passes" style="text;html=1;resizable=0;points=[];;align=center;verticalAlign=middle;labelBackgroundColor=none;rounded=0;shadow=0;strokeWidth=1;fontSize=12;" parent="zkfFHV4jXpPFQw0GAbJ--26" vertex="1" connectable="0">
          <mxGeometry x="0.5" y="49" relative="1" as="geometry">
            <mxPoint x="58" y="-59" as="offset" />
          </mxGeometry>
        </mxCell>
        <mxCell id="FkGXfzKXtZ8YiJBUD02L-26" value="" style="endArrow=open;shadow=0;strokeWidth=1;rounded=0;endFill=1;edgeStyle=orthogonalEdgeStyle;exitX=1;exitY=0.5;exitDx=0;exitDy=0;entryX=0.25;entryY=0;entryDx=0;entryDy=0;" edge="1" parent="WIyWlLk6GJQsqaUBKTNV-1" source="NNAgDV5kl5tZtwMsC2Bn-6" target="FkGXfzKXtZ8YiJBUD02L-20">
          <mxGeometry relative="1" as="geometry">
            <mxPoint x="740" y="335" as="sourcePoint" />
            <mxPoint x="632" y="335" as="targetPoint" />
            <Array as="points" />
          </mxGeometry>
        </mxCell>
        <mxCell id="FkGXfzKXtZ8YiJBUD02L-27" value="*" style="resizable=0;align=right;verticalAlign=bottom;labelBackgroundColor=none;fontSize=12;" connectable="0" vertex="1" parent="FkGXfzKXtZ8YiJBUD02L-26">
          <mxGeometry x="1" relative="1" as="geometry">
            <mxPoint x="18" y="1" as="offset" />
          </mxGeometry>
        </mxCell>
        <mxCell id="FkGXfzKXtZ8YiJBUD02L-29" value="" style="endArrow=open;shadow=0;strokeWidth=1;rounded=0;endFill=1;edgeStyle=orthogonalEdgeStyle;exitX=0;exitY=0.5;exitDx=0;exitDy=0;entryX=0.75;entryY=0;entryDx=0;entryDy=0;" edge="1" parent="WIyWlLk6GJQsqaUBKTNV-1" source="zkfFHV4jXpPFQw0GAbJ--3" target="FkGXfzKXtZ8YiJBUD02L-20">
          <mxGeometry relative="1" as="geometry">
            <mxPoint x="630" y="381" as="sourcePoint" />
            <mxPoint x="643" y="445" as="targetPoint" />
            <Array as="points" />
          </mxGeometry>
        </mxCell>
        <mxCell id="FkGXfzKXtZ8YiJBUD02L-30" value="*" style="resizable=0;align=right;verticalAlign=bottom;labelBackgroundColor=none;fontSize=12;" connectable="0" vertex="1" parent="FkGXfzKXtZ8YiJBUD02L-29">
          <mxGeometry x="1" relative="1" as="geometry">
            <mxPoint x="-7" as="offset" />
          </mxGeometry>
        </mxCell>
        <mxCell id="FkGXfzKXtZ8YiJBUD02L-55" value="BusArrivalInfoService" style="swimlane;fontStyle=2;align=center;verticalAlign=top;childLayout=stackLayout;horizontal=1;startSize=26;horizontalStack=0;resizeParent=1;resizeLast=0;collapsible=1;marginBottom=0;rounded=0;shadow=0;strokeWidth=1;fillColor=#dae8fc;strokeColor=#6c8ebf;" vertex="1" parent="WIyWlLk6GJQsqaUBKTNV-1">
          <mxGeometry x="60" y="1980" width="370" height="130" as="geometry">
            <mxRectangle x="220" y="120" width="160" height="26" as="alternateBounds" />
          </mxGeometry>
        </mxCell>
        <mxCell id="FkGXfzKXtZ8YiJBUD02L-66" value=" " style="text;align=left;verticalAlign=top;spacingLeft=4;spacingRight=4;overflow=hidden;rotatable=0;points=[[0,0.5],[1,0.5]];portConstraint=eastwest;rounded=0;shadow=0;html=0;" vertex="1" parent="FkGXfzKXtZ8YiJBUD02L-55">
          <mxGeometry y="26" width="370" height="14" as="geometry" />
        </mxCell>
        <mxCell id="FkGXfzKXtZ8YiJBUD02L-58" value="" style="line;html=1;strokeWidth=1;align=left;verticalAlign=middle;spacingTop=-1;spacingLeft=3;spacingRight=3;rotatable=0;labelPosition=right;points=[];portConstraint=eastwest;fillColor=#dae8fc;strokeColor=#6c8ebf;" vertex="1" parent="FkGXfzKXtZ8YiJBUD02L-55">
          <mxGeometry y="40" width="370" height="8" as="geometry" />
        </mxCell>
        <mxCell id="FkGXfzKXtZ8YiJBUD02L-61" value="ArrayList&lt;ArrivalRoute&gt; requestRealtimeBusArrivalInfo(nodeId)" style="text;align=left;verticalAlign=top;spacingLeft=4;spacingRight=4;overflow=hidden;rotatable=0;points=[[0,0.5],[1,0.5]];portConstraint=eastwest;rounded=0;shadow=0;html=0;" vertex="1" parent="FkGXfzKXtZ8YiJBUD02L-55">
          <mxGeometry y="48" width="370" height="26" as="geometry" />
        </mxCell>
        <mxCell id="FkGXfzKXtZ8YiJBUD02L-59" value="String buildUrl(nodeId)" style="text;align=left;verticalAlign=top;spacingLeft=4;spacingRight=4;overflow=hidden;rotatable=0;points=[[0,0.5],[1,0.5]];portConstraint=eastwest;rounded=0;shadow=0;html=0;" vertex="1" parent="FkGXfzKXtZ8YiJBUD02L-55">
          <mxGeometry y="74" width="370" height="26" as="geometry" />
        </mxCell>
        <mxCell id="FkGXfzKXtZ8YiJBUD02L-67" value="List&lt;ArrivalRoute&gt; filter(realtimeBusArrivalInfoList)" style="text;align=left;verticalAlign=top;spacingLeft=4;spacingRight=4;overflow=hidden;rotatable=0;points=[[0,0.5],[1,0.5]];portConstraint=eastwest;rounded=0;shadow=0;html=0;" vertex="1" parent="FkGXfzKXtZ8YiJBUD02L-55">
          <mxGeometry y="100" width="370" height="26" as="geometry" />
        </mxCell>
        <mxCell id="FkGXfzKXtZ8YiJBUD02L-68" value="BusLocationInfoService" style="swimlane;fontStyle=2;align=center;verticalAlign=top;childLayout=stackLayout;horizontal=1;startSize=26;horizontalStack=0;resizeParent=1;resizeLast=0;collapsible=1;marginBottom=0;rounded=0;shadow=0;strokeWidth=1;fillColor=#dae8fc;strokeColor=#6c8ebf;" vertex="1" parent="WIyWlLk6GJQsqaUBKTNV-1">
          <mxGeometry x="520" y="1980" width="290" height="130" as="geometry">
            <mxRectangle x="220" y="120" width="160" height="26" as="alternateBounds" />
          </mxGeometry>
        </mxCell>
        <mxCell id="FkGXfzKXtZ8YiJBUD02L-69" value=" " style="text;align=left;verticalAlign=top;spacingLeft=4;spacingRight=4;overflow=hidden;rotatable=0;points=[[0,0.5],[1,0.5]];portConstraint=eastwest;rounded=0;shadow=0;html=0;" vertex="1" parent="FkGXfzKXtZ8YiJBUD02L-68">
          <mxGeometry y="26" width="290" height="14" as="geometry" />
        </mxCell>
        <mxCell id="FkGXfzKXtZ8YiJBUD02L-70" value="" style="line;html=1;strokeWidth=1;align=left;verticalAlign=middle;spacingTop=-1;spacingLeft=3;spacingRight=3;rotatable=0;labelPosition=right;points=[];portConstraint=eastwest;fillColor=#dae8fc;strokeColor=#6c8ebf;" vertex="1" parent="FkGXfzKXtZ8YiJBUD02L-68">
          <mxGeometry y="40" width="290" height="8" as="geometry" />
        </mxCell>
        <mxCell id="FkGXfzKXtZ8YiJBUD02L-71" value="List&lt;Integer&gt; getRealtimeNodeOrderList(nodeId)" style="text;align=left;verticalAlign=top;spacingLeft=4;spacingRight=4;overflow=hidden;rotatable=0;points=[[0,0.5],[1,0.5]];portConstraint=eastwest;rounded=0;shadow=0;html=0;" vertex="1" parent="FkGXfzKXtZ8YiJBUD02L-68">
          <mxGeometry y="48" width="290" height="26" as="geometry" />
        </mxCell>
        <mxCell id="FkGXfzKXtZ8YiJBUD02L-72" value="String buildUrl(routeId)" style="text;align=left;verticalAlign=top;spacingLeft=4;spacingRight=4;overflow=hidden;rotatable=0;points=[[0,0.5],[1,0.5]];portConstraint=eastwest;rounded=0;shadow=0;html=0;" vertex="1" parent="FkGXfzKXtZ8YiJBUD02L-68">
          <mxGeometry y="74" width="290" height="26" as="geometry" />
        </mxCell>
        <mxCell id="FkGXfzKXtZ8YiJBUD02L-73" value="List&lt;Integer&gt; filter(realTimeBusLocationInfoList)" style="text;align=left;verticalAlign=top;spacingLeft=4;spacingRight=4;overflow=hidden;rotatable=0;points=[[0,0.5],[1,0.5]];portConstraint=eastwest;rounded=0;shadow=0;html=0;" vertex="1" parent="FkGXfzKXtZ8YiJBUD02L-68">
          <mxGeometry y="100" width="290" height="26" as="geometry" />
        </mxCell>
        <mxCell id="FkGXfzKXtZ8YiJBUD02L-74" value="&lt;TAGO_BusArrivalInfo, ArrivalRoute&gt;" style="endArrow=block;endSize=10;endFill=0;shadow=0;strokeWidth=1;rounded=0;elbow=vertical;entryX=0.46;entryY=1.038;entryDx=0;entryDy=0;edgeStyle=orthogonalEdgeStyle;exitX=0.5;exitY=0;exitDx=0;exitDy=0;entryPerimeter=0;" edge="1" parent="WIyWlLk6GJQsqaUBKTNV-1">
          <mxGeometry x="-0.0442" y="15" width="160" relative="1" as="geometry">
            <mxPoint x="244" y="1980" as="sourcePoint" />
            <mxPoint x="447" y="1910.988" as="targetPoint" />
            <Array as="points">
              <mxPoint x="244" y="1950" />
              <mxPoint x="447" y="1950" />
            </Array>
            <mxPoint as="offset" />
          </mxGeometry>
        </mxCell>
        <mxCell id="FkGXfzKXtZ8YiJBUD02L-75" value="&lt;TAGO_BusLocationInfo, Integer&gt;" style="endArrow=block;endSize=10;endFill=0;shadow=0;strokeWidth=1;rounded=0;elbow=vertical;edgeStyle=orthogonalEdgeStyle;spacing=2;" edge="1" parent="WIyWlLk6GJQsqaUBKTNV-1">
          <mxGeometry x="-0.1234" y="-19" width="160" relative="1" as="geometry">
            <mxPoint x="660" y="1979" as="sourcePoint" />
            <mxPoint x="477" y="1911" as="targetPoint" />
            <mxPoint as="offset" />
            <Array as="points">
              <mxPoint x="660" y="1949" />
              <mxPoint x="477" y="1949" />
            </Array>
          </mxGeometry>
        </mxCell>
        <mxCell id="FkGXfzKXtZ8YiJBUD02L-76" value="ArroundNodeService" style="swimlane;fontStyle=2;align=center;verticalAlign=top;childLayout=stackLayout;horizontal=1;startSize=26;horizontalStack=0;resizeParent=1;resizeLast=0;collapsible=1;marginBottom=0;rounded=0;shadow=0;strokeWidth=1;fillColor=#dae8fc;strokeColor=#6c8ebf;" vertex="1" parent="WIyWlLk6GJQsqaUBKTNV-1">
          <mxGeometry x="275" y="2160" width="370" height="130" as="geometry">
            <mxRectangle x="220" y="120" width="160" height="26" as="alternateBounds" />
          </mxGeometry>
        </mxCell>
        <mxCell id="FkGXfzKXtZ8YiJBUD02L-77" value=" " style="text;align=left;verticalAlign=top;spacingLeft=4;spacingRight=4;overflow=hidden;rotatable=0;points=[[0,0.5],[1,0.5]];portConstraint=eastwest;rounded=0;shadow=0;html=0;" vertex="1" parent="FkGXfzKXtZ8YiJBUD02L-76">
          <mxGeometry y="26" width="370" height="14" as="geometry" />
        </mxCell>
        <mxCell id="FkGXfzKXtZ8YiJBUD02L-78" value="" style="line;html=1;strokeWidth=1;align=left;verticalAlign=middle;spacingTop=-1;spacingLeft=3;spacingRight=3;rotatable=0;labelPosition=right;points=[];portConstraint=eastwest;fillColor=#dae8fc;strokeColor=#6c8ebf;" vertex="1" parent="FkGXfzKXtZ8YiJBUD02L-76">
          <mxGeometry y="40" width="370" height="8" as="geometry" />
        </mxCell>
        <mxCell id="FkGXfzKXtZ8YiJBUD02L-79" value="List&lt;Node&gt; requestAroundNodeInfo(longitude, latitude)" style="text;align=left;verticalAlign=top;spacingLeft=4;spacingRight=4;overflow=hidden;rotatable=0;points=[[0,0.5],[1,0.5]];portConstraint=eastwest;rounded=0;shadow=0;html=0;" vertex="1" parent="FkGXfzKXtZ8YiJBUD02L-76">
          <mxGeometry y="48" width="370" height="26" as="geometry" />
        </mxCell>
        <mxCell id="FkGXfzKXtZ8YiJBUD02L-80" value="String buildUrl(longitude, latitude)" style="text;align=left;verticalAlign=top;spacingLeft=4;spacingRight=4;overflow=hidden;rotatable=0;points=[[0,0.5],[1,0.5]];portConstraint=eastwest;rounded=0;shadow=0;html=0;" vertex="1" parent="FkGXfzKXtZ8YiJBUD02L-76">
          <mxGeometry y="74" width="370" height="26" as="geometry" />
        </mxCell>
        <mxCell id="FkGXfzKXtZ8YiJBUD02L-81" value="List&lt;Node&gt; filter(aroundNodeInfoList)" style="text;align=left;verticalAlign=top;spacingLeft=4;spacingRight=4;overflow=hidden;rotatable=0;points=[[0,0.5],[1,0.5]];portConstraint=eastwest;rounded=0;shadow=0;html=0;" vertex="1" parent="FkGXfzKXtZ8YiJBUD02L-76">
          <mxGeometry y="100" width="370" height="26" as="geometry" />
        </mxCell>
        <mxCell id="FkGXfzKXtZ8YiJBUD02L-82" value="&lt;TAGO_AroundNodeInfo, Node&gt;" style="endArrow=block;endSize=10;endFill=0;shadow=0;strokeWidth=1;rounded=0;elbow=vertical;edgeStyle=elbowEdgeStyle;entryX=0.5;entryY=1.017;entryDx=0;entryDy=0;entryPerimeter=0;" edge="1" parent="WIyWlLk6GJQsqaUBKTNV-1">
          <mxGeometry x="-0.7596" width="160" relative="1" as="geometry">
            <mxPoint x="461" y="2160" as="sourcePoint" />
            <mxPoint x="461" y="1910.4420000000002" as="targetPoint" />
            <Array as="points" />
            <mxPoint as="offset" />
          </mxGeometry>
        </mxCell>
      </root>
    </mxGraphModel>
  </diagram>
</mxfile>
